<svg width="394" height="578" viewBox="0 0 394 578" fill="none" xmlns="http://www.w3.org/2000/svg">
<mask id="mask0_283_1287" style="mask-type:alpha" maskUnits="userSpaceOnUse" x="0" y="0" width="394" height="578">
<rect width="394" height="578" fill="#D9D9D9"/>
</mask>
<g mask="url(#mask0_283_1287)">
<path d="M245.053 402.707C245.289 400.784 247.848 400.287 248.787 401.982L250.979 405.937C251.399 406.695 252.259 407.097 253.11 406.931L257.549 406.069C259.451 405.7 260.714 407.98 259.392 409.397L256.308 412.703C255.717 413.337 255.601 414.279 256.021 415.037L258.213 418.992C259.152 420.687 257.374 422.593 255.618 421.774L251.52 419.863C250.735 419.496 249.803 419.677 249.212 420.311L246.127 423.617C244.806 425.034 242.443 423.932 242.68 422.009L243.232 417.521C243.337 416.661 242.877 415.831 242.092 415.464L237.994 413.553C236.238 412.734 236.556 410.146 238.458 409.777L242.897 408.915C243.748 408.75 244.395 408.056 244.501 407.196L245.053 402.707Z" fill="#FBD504"/>
<path d="M60.6748 149.355C60.9112 147.432 63.4702 146.935 64.4092 148.629L66.5886 152.563C67.0085 153.32 67.8687 153.722 68.7193 153.556L73.1334 152.699C75.0353 152.33 76.2988 154.61 74.9772 156.027L71.91 159.315C71.319 159.948 71.2032 160.891 71.6232 161.648L73.8025 165.582C74.7416 167.276 72.9634 169.182 71.2076 168.363L67.1326 166.462C66.3474 166.096 65.4156 166.277 64.8246 166.911L61.7574 170.199C60.4359 171.616 58.0735 170.514 58.3099 168.591L58.8586 164.128C58.9643 163.268 58.5042 162.437 57.719 162.071L53.644 160.17C51.8882 159.351 52.2063 156.764 54.1082 156.394L58.5223 155.537C59.3729 155.372 60.0204 154.678 60.1261 153.818L60.6748 149.355Z" fill="#FBD504"/>
<path d="M93.4495 125.046C94.7825 126.49 95.6621 128.114 96.0881 129.916C96.4942 131.697 96.3582 133.539 95.68 135.442C95.0233 137.325 93.7682 139.123 91.9144 140.834L89.0692 143.46L95.7838 150.735L88.606 157.36L67.4771 134.468L77.5002 125.217C80.3024 122.631 83.1037 121.362 85.9041 121.412C88.726 121.442 91.2412 122.654 93.4495 125.046ZM85.8836 135.922C87.3709 134.549 87.4679 133.162 86.1747 131.761C84.8815 130.36 83.4913 130.346 82.004 131.718L79.967 133.598L83.8466 137.802L85.8836 135.922ZM105.484 113.367L107.542 116.595L115.704 111.391L119.655 117.586L111.493 122.791L113.858 126.501L123.133 120.587L127.32 127.153L109.809 138.319L93.061 112.052L110.572 100.887L114.759 107.453L105.484 113.367ZM144.879 120.427C142.141 121.479 139.375 121.803 136.58 121.4C133.813 120.986 131.322 119.901 129.107 118.143C126.892 116.386 125.238 114.084 124.144 111.236C123.05 108.388 122.737 105.57 123.205 102.782C123.674 99.9939 124.803 97.5334 126.591 95.4007C128.397 93.23 130.669 91.6187 133.407 90.5667C136.145 89.5147 138.898 89.1955 141.665 89.6093C144.422 89.9957 146.894 91.0727 149.081 92.8405C151.296 94.5977 152.951 96.9001 154.045 99.7479C155.139 102.596 155.452 105.414 154.983 108.202C154.542 110.979 153.419 113.454 151.613 115.624C149.835 117.784 147.59 119.385 144.879 120.427ZM141.613 111.925C143.42 111.23 144.596 110.119 145.14 108.59C145.673 107.034 145.561 105.27 144.803 103.298C144.035 101.3 142.938 99.9145 141.51 99.1432C140.072 98.3445 138.449 98.2923 136.642 98.9866C134.808 99.6915 133.624 100.822 133.09 102.378C132.546 103.907 132.658 105.671 133.426 107.67C134.184 109.641 135.282 111.026 136.72 111.825C138.147 112.596 139.778 112.629 141.613 111.925ZM185.092 89.5453C185.39 91.488 185.212 93.3255 184.558 95.0581C183.899 96.7617 182.757 98.213 181.131 99.4121C179.533 100.607 177.488 101.395 174.994 101.778L171.167 102.365L172.668 112.15L163.013 113.632L158.29 82.8397L171.772 80.7716C175.541 80.1934 178.573 80.7077 180.867 82.3144C183.19 83.9167 184.599 86.327 185.092 89.5453ZM172.74 94.3337C174.74 94.0268 175.596 92.931 175.307 91.0464C175.018 89.1618 173.873 88.3729 171.872 88.6798L169.132 89.1001L170 94.754L172.74 94.3337ZM201.143 102.473L210.557 102.649L210.418 110.04L191.238 109.681L191.821 78.5341L201.588 78.717L201.143 102.473ZM227.13 89.1365L226.462 92.9058L235.994 94.5936L234.713 101.829L225.181 100.141L224.414 104.474L235.246 106.392L233.888 114.061L213.438 110.439L218.869 79.7647L239.319 83.3857L237.961 91.0544L227.13 89.1365ZM270.014 110.992C271.559 112.147 272.526 113.561 272.915 115.235C273.343 116.894 273.199 118.544 272.483 120.184C271.392 122.684 269.714 124.256 267.449 124.899C265.222 125.528 262.563 125.167 259.471 123.818L244.51 117.288L256.972 88.7369L271.53 95.091C274.433 96.3583 276.442 97.9874 277.558 99.9785C278.673 101.97 278.703 104.175 277.647 106.594C276.919 108.261 275.859 109.479 274.468 110.248C273.115 111.002 271.63 111.25 270.014 110.992ZM261.066 103.774L264.534 105.288C265.341 105.64 266.003 105.737 266.52 105.579C267.064 105.432 267.483 105.023 267.776 104.351C268.081 103.652 268.102 103.053 267.84 102.554C267.616 102.04 267.101 101.608 266.294 101.255L262.826 99.7418L261.066 103.774ZM260.668 115.795C261.475 116.147 262.131 116.257 262.636 116.126C263.181 115.979 263.605 115.556 263.91 114.857C264.509 113.486 264.015 112.455 262.429 111.762L258.356 109.985L256.596 114.017L260.668 115.795ZM297.679 109.899L287.474 124.185C286.639 125.354 286.224 126.464 286.231 127.514C286.279 128.558 286.875 129.489 288.021 130.307C289.167 131.126 290.253 131.397 291.279 131.121C292.322 130.821 293.262 130.086 294.098 128.916L304.303 114.631L312.215 120.284L302.01 134.569C300.288 136.98 298.311 138.686 296.081 139.688C293.868 140.667 291.584 140.963 289.227 140.578C286.871 140.192 284.619 139.232 282.471 137.698C280.323 136.163 278.72 134.369 277.663 132.317C276.63 130.281 276.253 128.083 276.533 125.723C276.813 123.364 277.822 120.967 279.562 118.532L289.767 104.247L297.679 109.899ZM340.347 149.653L316.768 155.935L309.757 162.287L303.198 155.048L310.209 148.697L318.78 125.85L326.284 134.132L321.438 145.232L332.961 141.501L340.347 149.653ZM328.916 192.402C327.613 189.774 327.032 187.05 327.172 184.23C327.326 181.437 328.174 178.855 329.717 176.486C331.26 174.117 333.398 172.254 336.131 170.899C338.864 169.544 341.641 168.97 344.461 169.176C347.28 169.382 349.835 170.277 352.126 171.859C354.456 173.454 356.272 175.565 357.575 178.193C358.878 180.821 359.452 183.532 359.299 186.326C359.171 189.107 358.33 191.668 356.774 194.011C355.231 196.381 353.093 198.243 350.36 199.598C347.626 200.953 344.85 201.527 342.03 201.321C339.224 201.141 336.655 200.253 334.326 198.658C332.009 197.089 330.206 195.004 328.916 192.402ZM337.076 188.357C337.936 190.091 339.152 191.158 340.725 191.557C342.324 191.942 344.07 191.666 345.962 190.728C347.881 189.777 349.157 188.555 349.792 187.061C350.453 185.555 350.353 183.935 349.494 182.2C348.621 180.439 347.384 179.366 345.785 178.98C344.212 178.581 342.467 178.857 340.548 179.809C338.656 180.747 337.38 181.969 336.719 183.475C336.084 184.969 336.203 186.596 337.076 188.357ZM369.87 211.854L352.798 215.945C351.4 216.28 350.359 216.846 349.675 217.643C349.027 218.462 348.867 219.556 349.195 220.926C349.523 222.295 350.165 223.212 351.121 223.676C352.105 224.134 353.297 224.196 354.694 223.861L371.767 219.77L374.033 229.226L356.96 233.317C354.079 234.008 351.468 234 349.127 233.294C346.815 232.581 344.896 231.306 343.37 229.47C341.844 227.634 340.773 225.432 340.158 222.865C339.543 220.297 339.509 217.892 340.058 215.649C340.613 213.435 341.77 211.529 343.529 209.931C345.288 208.333 347.622 207.186 350.532 206.489L367.604 202.398L369.87 211.854ZM376.303 263.886L368.564 264.17L368.261 255.904L344.868 256.763L344.51 247.002L367.902 246.142L367.602 237.964L375.34 237.68L376.303 263.886ZM360.378 269.311C363.416 269.817 366.02 270.876 368.19 272.486C370.355 274.126 371.898 276.197 372.82 278.7C373.77 281.207 373.987 284.009 373.471 287.105C373.027 289.767 372.126 292.055 370.766 293.97C369.43 295.918 367.742 297.391 365.702 298.39C363.658 299.417 361.384 299.945 358.881 299.974L360.574 289.818C361.663 289.524 362.555 288.989 363.25 288.212C363.968 287.469 364.419 286.548 364.602 285.449C364.872 283.829 364.479 282.44 363.423 281.282C362.362 280.154 360.805 279.419 358.75 279.076C356.696 278.734 354.984 278.924 353.615 279.648C352.24 280.4 351.418 281.587 351.148 283.207C350.965 284.306 351.078 285.321 351.488 286.252C351.922 287.217 352.607 288.015 353.542 288.646L351.85 298.802C349.492 297.963 347.512 296.726 345.911 295.092C344.305 293.486 343.172 291.543 342.511 289.262C341.875 287.014 341.778 284.56 342.222 281.898C342.738 278.802 343.837 276.219 345.52 274.151C347.232 272.087 349.378 270.63 351.958 269.781C354.533 268.961 357.339 268.805 360.378 269.311ZM332.767 313.969C333.898 311.262 335.575 309.038 337.797 307.296C340.008 305.581 342.514 304.53 345.314 304.143C348.115 303.755 350.923 304.15 353.737 305.326C356.552 306.503 358.806 308.223 360.498 310.488C362.19 312.753 363.189 315.269 363.495 318.036C363.817 320.841 363.413 323.596 362.282 326.303C361.151 329.009 359.48 331.22 357.269 332.935C355.085 334.661 352.598 335.704 349.809 336.065C347.009 336.452 344.201 336.058 341.386 334.881C338.571 333.705 336.318 331.984 334.626 329.719C332.922 327.481 331.909 324.96 331.588 322.155C331.254 319.377 331.648 316.648 332.767 313.969ZM341.171 317.481C340.424 319.267 340.416 320.885 341.146 322.334C341.902 323.795 343.255 324.932 345.203 325.747C347.179 326.572 348.939 326.736 350.483 326.236C352.054 325.748 353.213 324.611 353.959 322.825C354.717 321.012 354.718 319.375 353.961 317.914C353.231 316.464 351.879 315.327 349.903 314.501C347.954 313.687 346.195 313.524 344.624 314.012C343.08 314.511 341.929 315.667 341.171 317.481ZM326.999 380.387L302.283 361.425L308.202 353.71L320.525 363.164L311.121 349.905L316.209 343.272L331.452 348.921L319.129 339.467L325.074 331.717L349.791 350.679L342.506 360.174L323.491 354.238L334.257 370.927L326.999 380.387ZM306.759 388.682L304.311 385.739L296.868 391.928L292.17 386.277L299.614 380.089L296.801 376.705L288.342 383.738L283.363 377.749L299.333 364.472L319.249 388.426L303.279 401.703L298.3 395.715L306.759 388.682ZM269.598 385.543C272.833 383.697 275.937 382.921 278.91 383.217C281.871 383.553 284.277 385.135 286.128 387.963L277.109 393.111C276.095 391.63 274.964 391.245 273.715 391.958C273.257 392.22 272.933 392.54 272.744 392.918C272.543 393.336 272.574 393.775 272.836 394.233C273.199 394.87 273.834 395.183 274.74 395.173C275.66 395.188 276.992 395.036 278.735 394.716C280.816 394.339 282.597 394.116 284.078 394.047C285.534 393.994 286.989 394.294 288.444 394.95C289.899 395.606 291.115 396.819 292.093 398.592C293.097 400.35 293.502 402.094 293.308 403.826C293.103 405.598 292.406 407.246 291.215 408.77C289.999 410.308 288.411 411.637 286.449 412.757C283.137 414.647 280.077 415.381 277.269 414.958C274.434 414.549 272.174 412.985 270.487 410.266L279.62 405.053C280.082 405.803 280.585 406.242 281.131 406.369C281.677 406.497 282.204 406.415 282.714 406.124C283.07 405.921 283.291 405.626 283.375 405.241C283.473 404.88 283.399 404.484 283.151 404.051C282.802 403.439 282.18 403.119 281.285 403.089C280.379 403.1 279.028 403.246 277.23 403.529C275.16 403.867 273.41 404.055 271.98 404.095C270.524 404.149 269.091 403.886 267.68 403.307C266.268 402.728 265.112 401.648 264.21 400.069C263.265 398.413 262.822 396.69 262.881 394.9C262.954 393.135 263.557 391.44 264.69 389.814C265.822 388.189 267.458 386.765 269.598 385.543ZM198.193 405.162L207.907 404.131L219.843 418.616L218.189 403.039L227.902 402.008L231.191 432.986L221.478 434.017L209.514 419.27L211.196 435.109L201.482 436.14L198.193 405.162ZM178.864 402.912C181.774 403.278 184.366 404.299 186.638 405.975C188.882 407.646 190.565 409.78 191.687 412.375C192.809 414.97 193.18 417.781 192.799 420.808C192.418 423.835 191.362 426.466 189.632 428.702C187.902 430.938 185.745 432.574 183.161 433.609C180.544 434.669 177.781 435.016 174.87 434.65C171.96 434.284 169.383 433.265 167.14 431.593C164.892 429.95 163.222 427.833 162.129 425.242C161.007 422.647 160.637 419.836 161.017 416.809C161.398 413.782 162.454 411.151 164.184 408.914C165.885 406.674 168.044 405.024 170.66 403.964C173.248 402.9 175.983 402.55 178.864 402.912ZM177.727 411.949C175.806 411.707 174.245 412.132 173.043 413.222C171.838 414.342 171.104 415.949 170.84 418.045C170.573 420.169 170.886 421.909 171.78 423.263C172.67 424.646 174.076 425.459 175.997 425.7C177.946 425.946 179.524 425.509 180.729 424.389C181.931 423.298 182.665 421.691 182.933 419.566C183.196 417.471 182.883 415.731 181.993 414.348C181.099 412.994 179.677 412.194 177.727 411.949ZM126.33 421.737L128.873 414.423L136.686 417.139L144.373 395.029L153.599 398.237L145.912 420.346L153.643 423.034L151.1 430.349L126.33 421.737ZM95.0988 391.048C96.1666 389.398 97.5204 388.143 99.1604 387.282C100.784 386.447 102.603 386.121 104.615 386.305C106.602 386.473 108.655 387.242 110.773 388.613L114.024 390.717L119.402 382.405L127.603 387.712L110.678 413.866L99.2265 406.455C96.0251 404.383 94.1007 401.985 93.4533 399.26C92.7813 396.519 93.3298 393.781 95.0988 391.048ZM107.513 395.675C105.814 394.575 104.446 394.826 103.41 396.427C102.374 398.027 102.706 399.378 104.405 400.477L106.732 401.983L109.84 397.181L107.513 395.675ZM92.6714 360.974L89.0947 373.071L89.1263 373.102L96.9049 365.077L103.919 371.876L82.2364 394.244L71.8106 384.138C69.9993 382.382 68.7677 380.555 68.1158 378.657C67.4435 376.78 67.3324 374.976 67.7826 373.248C68.1914 371.52 69.0695 369.96 70.417 368.57C71.8665 367.075 73.574 366.156 75.5394 365.815C77.4837 365.452 79.4802 365.774 81.5288 366.779L84.9627 353.501L92.6714 360.974ZM84.5938 377.778L81.8136 375.083C81.1396 374.43 80.4912 374.087 79.8684 374.055C79.2252 374.045 78.5871 374.366 77.9542 375.019C77.3825 375.608 77.1124 376.245 77.1438 376.929C77.1541 377.593 77.4857 378.241 78.1387 378.874L80.9189 381.569L84.5938 377.778ZM75.0224 338.269C76.6432 340.714 77.5597 343.344 77.772 346.16C77.9681 348.951 77.4486 351.618 76.2134 354.161C74.9783 356.704 73.0894 358.819 70.5466 360.504C68.0039 362.19 65.3208 363.106 62.4974 363.253C59.6739 363.401 57.0273 362.832 54.5574 361.548C52.0469 360.256 49.9812 358.388 48.3605 355.943C46.7398 353.498 45.8314 350.88 45.6353 348.089C45.4147 345.314 45.9301 342.668 47.1815 340.149C48.4166 337.606 50.3055 335.491 52.8482 333.806C55.391 332.12 58.0741 331.204 60.8975 331.056C63.7047 330.885 66.3636 331.445 68.8742 332.737C71.3685 334.005 73.4179 335.849 75.0224 338.269ZM67.4309 343.301C66.3613 341.688 65.0212 340.781 63.4109 340.582C61.7761 340.398 60.0786 340.89 58.3182 342.057C56.5334 343.24 55.4193 344.612 54.9759 346.173C54.5081 347.75 54.809 349.346 55.8787 350.959C56.9645 352.597 58.3249 353.508 59.9597 353.691C61.57 353.891 63.2676 353.399 65.0524 352.216C66.8127 351.049 67.9268 349.677 68.3947 348.1C68.8381 346.539 68.5168 344.939 67.4309 343.301ZM30.7612 320.752C29.6235 317.701 29.2477 314.805 29.6338 312.062C30.0096 309.292 31.0663 306.879 32.8038 304.822C34.5413 302.765 36.8118 301.214 39.6152 300.169C42.3911 299.134 45.1228 298.819 47.8103 299.226C50.4977 299.633 52.9178 300.749 55.0706 302.576C57.1856 304.386 58.8119 306.816 59.9496 309.867L64.4851 322.029L35.2967 332.914L30.7612 320.752ZM52.0942 313.736C51.3255 311.674 50.1522 310.249 48.5744 309.46C46.9966 308.671 45.1632 308.666 43.0744 309.445C40.9856 310.224 39.6033 311.428 38.9274 313.058C38.2515 314.687 38.2979 316.533 39.0667 318.594L39.8815 320.779L52.9091 315.921L52.0942 313.736ZM21.3763 286.182L38.7641 283.758C40.1877 283.56 41.2782 283.097 42.0356 282.369C42.76 281.616 43.025 280.543 42.8306 279.148C42.6361 277.754 42.0856 276.779 41.179 276.224C40.2433 275.674 39.0637 275.497 37.6401 275.696L20.2523 278.12L18.9096 268.489L36.2975 266.065C39.2318 265.656 41.8298 265.916 44.0917 266.844C46.3246 267.777 48.1118 269.231 49.4533 271.206C50.7949 273.181 51.6479 275.476 52.0124 278.09C52.377 280.705 52.178 283.102 51.4157 285.282C50.6492 287.432 49.3137 289.218 47.4089 290.638C45.5041 292.059 43.0701 292.976 40.1068 293.389L22.7189 295.813L21.3763 286.182ZM34.0246 259.718C30.954 259.478 28.2679 258.649 25.9661 257.233C23.6667 255.788 21.9495 253.858 20.8146 251.445C19.6504 249.029 19.1909 246.257 19.4361 243.128C19.6469 240.438 20.3466 238.08 21.5352 236.054C22.6967 233.997 24.2503 232.383 26.1957 231.212C28.1435 230.011 30.3628 229.287 32.8536 229.041L32.0493 239.306C30.9891 239.693 30.1468 240.304 29.5224 241.138C28.8711 241.94 28.5019 242.897 28.4148 244.008C28.2865 245.646 28.7986 246.995 29.9512 248.057C31.1061 249.089 32.7217 249.686 34.798 249.849C36.8743 250.011 38.5633 249.673 39.8648 248.833C41.1687 247.965 41.8848 246.711 42.0131 245.074C42.1002 243.962 41.8992 242.961 41.41 242.069C40.8939 241.146 40.1424 240.411 39.1555 239.863L39.9599 229.598C42.382 230.229 44.4615 231.29 46.1984 232.779C47.9376 234.239 49.2354 236.077 50.0916 238.292C50.9209 240.476 51.2301 242.913 51.0193 245.603C50.7741 248.732 49.903 251.4 48.406 253.607C46.8797 255.812 44.8683 257.449 42.3718 258.519C39.8776 259.559 37.0952 259.959 34.0246 259.718ZM29.5818 195.011L37.0195 197.168L34.716 205.113L57.1981 211.631L54.478 221.013L31.9959 214.494L29.7169 222.355L22.2792 220.198L29.5818 195.011ZM66.3882 190.594C64.7059 193.918 62.5429 196.275 59.8993 197.666C57.2428 199.017 54.3632 199.022 51.2607 197.682L55.9501 188.417C57.6128 189.095 58.7687 188.792 59.4178 187.51C59.6562 187.038 59.7502 186.593 59.6998 186.173C59.6365 185.713 59.3692 185.364 58.8982 185.126C58.2439 184.795 57.5416 184.883 56.7913 185.391C56.0149 185.886 54.9875 186.747 53.709 187.974C52.1801 189.435 50.8166 190.603 49.6185 191.476C48.4337 192.323 47.0536 192.873 45.4781 193.128C43.9027 193.383 42.2187 193.04 40.426 192.1C38.6202 191.186 37.3209 189.953 36.5283 188.401C35.7228 186.81 35.3969 185.05 35.5506 183.123C35.7176 181.169 36.3111 179.184 37.3311 177.169C39.0532 173.767 41.2027 171.468 43.7798 170.274C46.3701 169.054 49.1181 169.113 52.0239 170.452L47.2749 179.835C46.4765 179.464 45.8145 179.375 45.2888 179.569C44.7631 179.763 44.3678 180.122 44.1028 180.646C43.9174 181.012 43.8959 181.379 44.0384 181.747C44.1547 182.102 44.4354 182.392 44.8803 182.617C45.5084 182.935 46.2041 182.86 46.9672 182.391C47.7175 181.883 48.7646 181.016 50.1087 179.79C51.6505 178.367 53.0072 177.246 54.1788 176.425C55.3636 175.578 56.7045 175.007 58.2014 174.713C59.6984 174.419 61.2582 174.682 62.8808 175.503C64.582 176.365 65.9011 177.558 66.8382 179.085C67.749 180.598 68.18 182.344 68.1309 184.325C68.0818 186.306 67.5009 188.395 66.3882 190.594Z" fill="white"/>
</g>
</svg>
