<svg width="407" height="582" viewBox="0 0 407 582" fill="none" xmlns="http://www.w3.org/2000/svg">
<mask id="mask0_281_1279" style="mask-type:alpha" maskUnits="userSpaceOnUse" x="0" y="0" width="407" height="582">
<rect width="407" height="582" fill="#D9D9D9"/>
</mask>
<g mask="url(#mask0_281_1279)">
<path d="M294.613 224.394L154.32 191.986C150.164 191.026 145.985 193.496 144.822 197.601L136.829 225.82C135.7 229.807 131.713 232.271 127.642 231.5L29.7559 212.953C25.4138 212.13 21.2272 214.984 20.4059 219.327L10.0506 274.081C9.27776 278.167 11.7651 282.164 15.7729 283.276L59.9685 295.536C63.4258 296.495 65.8218 299.638 65.8301 303.226L65.908 336.966C65.9166 340.68 68.4799 343.9 72.0973 344.74L305.669 399.014C309.809 399.976 313.978 397.533 315.163 393.451L323.107 366.077C324.181 362.374 327.745 359.964 331.582 360.346L385.719 365.73C389.912 366.147 393.71 363.241 394.402 359.084L403.628 303.692C404.309 299.604 401.756 295.674 397.745 294.634L303.864 270.285C300.048 269.295 297.521 265.673 297.912 261.749L300.773 232.981C301.171 228.976 298.534 225.3 294.613 224.394Z" fill="#C63B58"/>
<path d="M169.228 202.035L164.307 224.174C163.815 226.388 163.981 228.214 164.805 229.651C165.629 231.088 167.095 232.04 169.203 232.509C171.312 232.978 173.061 232.74 174.451 231.795C175.842 230.85 176.783 229.27 177.275 227.056L182.195 204.917L191.21 206.92L186.301 229.007C185.566 232.311 184.243 234.948 182.329 236.92C180.416 238.892 178.135 240.192 175.488 240.821C172.876 241.457 170.111 241.451 167.194 240.803C164.277 240.154 161.784 239.01 159.715 237.37C157.688 235.703 156.261 233.579 155.433 230.998C154.613 228.381 154.571 225.421 155.305 222.118L160.214 200.031L169.228 202.035ZM202.622 248.677C199.916 248.075 197.589 247.097 195.64 245.742C193.692 244.387 192.259 242.704 191.341 240.693C190.459 238.69 190.252 236.468 190.721 234.028L200.315 236.16C200.151 237.562 200.391 238.722 201.035 239.639C201.687 240.522 202.663 241.107 203.963 241.396C205.299 241.693 206.42 241.629 207.325 241.203C208.239 240.743 208.817 239.968 209.059 238.878C209.262 237.964 209.114 237.139 208.614 236.401C208.15 235.67 207.503 235.01 206.676 234.421C205.883 233.839 204.715 233.118 203.173 232.259C200.947 230.99 199.161 229.819 197.814 228.745C196.467 227.671 195.409 226.293 194.639 224.61C193.87 222.927 193.743 220.925 194.259 218.606C195.024 215.162 196.869 212.751 199.794 211.373C202.727 209.959 206.196 209.698 210.202 210.588C214.279 211.494 217.346 213.209 219.404 215.731C221.469 218.218 222.203 221.221 221.606 224.739L211.854 222.572C212.049 221.361 211.817 220.333 211.157 219.485C210.505 218.603 209.546 218.021 208.281 217.74C207.192 217.498 206.247 217.601 205.446 218.05C204.653 218.464 204.136 219.216 203.894 220.305C203.628 221.5 203.984 222.556 204.96 223.474C205.936 224.391 207.533 225.502 209.751 226.807C211.961 228.146 213.722 229.349 215.034 230.415C216.381 231.489 217.443 232.849 218.22 234.497C218.997 236.145 219.139 238.076 218.647 240.29C218.179 242.399 217.208 244.193 215.736 245.673C214.299 247.16 212.448 248.187 210.183 248.753C207.919 249.319 205.398 249.294 202.622 248.677ZM237.38 224.76L235.716 232.246L247.787 234.929L246.241 241.887L234.169 239.204L232.365 247.322L246.018 250.356L244.413 257.578L221.746 252.54L229.971 215.535L252.637 220.573L251.032 227.795L237.38 224.76ZM269.136 263.073L264.545 247.393L262.384 246.913L259.279 260.882L250.265 258.879L258.49 221.874L273.618 225.236C276.535 225.884 278.899 226.945 280.711 228.417C282.558 229.897 283.792 231.646 284.413 233.665C285.041 235.649 285.113 237.73 284.629 239.909C284.082 242.369 282.891 244.409 281.056 246.029C279.256 247.657 276.913 248.575 274.028 248.782L279.31 265.334L269.136 263.073ZM263.801 240.535L269.389 241.777C271.041 242.144 272.36 242.013 273.348 241.384C274.371 240.763 275.047 239.715 275.375 238.239C275.687 236.833 275.512 235.633 274.848 234.637C274.219 233.649 273.079 232.971 271.428 232.604L265.84 231.362L263.801 240.535ZM49.277 240.319L47.6133 247.805L59.6847 250.488L58.1382 257.446L46.0668 254.763L44.2625 262.881L57.9154 265.915L56.3103 273.137L33.6434 268.099L41.868 231.094L64.5349 236.132L62.9298 243.354L49.277 240.319ZM84.8292 279.476L79.8101 266.467L70.6492 276.324L60.4228 274.051L76.466 257.869L68.3838 236.988L78.8739 239.319L83.8227 252.146L92.843 242.424L103.069 244.697L87.1668 260.745L95.3192 281.807L84.8292 279.476ZM133.623 263.989C133.147 266.133 132.217 267.992 130.835 269.565C129.46 271.104 127.633 272.191 125.352 272.827C123.072 273.464 120.421 273.446 117.399 272.774L111.811 271.533L108.858 284.816L99.8444 282.813L108.069 245.808L122.671 249.053C125.623 249.709 128.005 250.774 129.816 252.246C131.628 253.718 132.844 255.463 133.465 257.482C134.086 259.501 134.139 261.67 133.623 263.989ZM118.307 265.453C120.029 265.836 121.401 265.717 122.424 265.096C123.447 264.475 124.123 263.427 124.451 261.951C124.779 260.475 124.611 259.239 123.947 258.243C123.283 257.247 122.091 256.558 120.369 256.175L115.466 255.086L113.404 264.363L118.307 265.453ZM148.373 262.344L146.709 269.83L158.78 272.513L157.234 279.471L145.162 276.788L143.358 284.906L157.011 287.94L155.406 295.162L132.739 290.124L140.964 253.119L163.631 258.157L162.025 265.379L148.373 262.344ZM180.129 300.657L175.538 284.977L173.377 284.497L170.272 298.466L161.258 296.463L169.483 259.458L184.611 262.82C187.528 263.468 189.892 264.529 191.704 266.001C193.551 267.481 194.785 269.23 195.406 271.249C196.034 273.233 196.107 275.314 195.622 277.493C195.076 279.953 193.884 281.993 192.049 283.613C190.249 285.241 187.906 286.159 185.021 286.366L190.303 302.918L180.129 300.657ZM174.794 278.119L180.382 279.36C182.034 279.728 183.353 279.597 184.341 278.968C185.364 278.347 186.04 277.299 186.368 275.823C186.68 274.417 186.505 273.217 185.841 272.221C185.212 271.233 184.072 270.555 182.421 270.188L176.833 268.946L174.794 278.119ZM223.432 287.601L222.307 292.662L200.642 287.846L201.767 282.786L223.432 287.601ZM243.719 275.957L235.495 312.962L226.481 310.959L234.705 273.954L243.719 275.957ZM257.661 286.634L255.997 294.12L268.069 296.803L266.522 303.761L254.451 301.078L252.646 309.196L266.299 312.23L264.694 319.452L242.027 314.414L250.252 277.409L272.919 282.447L271.314 289.669L257.661 286.634ZM303.65 328.111L294.636 326.107L284.633 299.931L279.56 322.756L270.546 320.753L278.771 283.748L287.785 285.751L297.764 312.032L302.861 289.102L311.875 291.105L303.65 328.111ZM312.78 310.668C313.592 307.013 315.105 303.938 317.319 301.443C319.541 298.913 322.234 297.169 325.396 296.213C328.602 295.229 331.997 295.135 335.582 295.932C339.975 296.908 343.477 298.904 346.089 301.918C348.702 304.933 350.09 308.56 350.254 312.801L340.343 310.598C339.949 308.888 339.156 307.477 337.965 306.364C336.81 305.259 335.371 304.515 333.649 304.132C330.873 303.515 328.409 303.981 326.257 305.532C324.106 307.082 322.67 309.473 321.952 312.706C321.233 315.939 321.52 318.714 322.813 321.029C324.105 323.345 326.139 324.811 328.916 325.428C330.638 325.811 332.256 325.747 333.771 325.235C335.321 324.731 336.637 323.789 337.719 322.406L347.629 324.609C345.684 328.381 342.89 331.079 339.247 332.703C335.612 334.292 331.598 334.599 327.205 333.622C323.62 332.826 320.581 331.32 318.086 329.106C315.634 326.865 313.933 324.145 312.984 320.947C312.036 317.749 311.967 314.323 312.78 310.668ZM365.971 310.707L364.307 318.193L376.379 320.876L374.832 327.834L362.761 325.151L360.957 333.269L374.609 336.303L373.004 343.525L350.337 338.487L358.562 301.482L381.229 306.52L379.624 313.742L365.971 310.707ZM92.7692 299.774C96.67 300.641 99.907 302.172 102.48 304.366C105.053 306.561 106.818 309.24 107.775 312.402C108.774 315.538 108.868 318.933 108.056 322.588C107.251 326.208 105.728 329.243 103.487 331.696C101.28 334.156 98.5294 335.831 95.2338 336.721C91.9733 337.619 88.4102 337.638 84.5445 336.779L70.6808 333.698L78.9055 296.693L92.7692 299.774ZM85.6987 328.848C89.1075 329.606 91.9677 329.265 94.2794 327.824C96.591 326.383 98.1257 323.958 98.8833 320.549C99.641 317.141 99.2818 314.276 97.8059 311.957C96.33 309.637 93.8876 308.099 90.4788 307.341L86.209 306.392L81.4288 327.899L85.6987 328.848ZM124.614 314.43L122.951 321.916L135.022 324.599L133.475 331.557L121.404 328.874L119.6 336.992L133.253 340.026L131.648 347.248L108.981 342.21L117.205 305.205L139.872 310.243L138.267 317.465L124.614 314.43ZM150.807 351.893C148.101 351.292 145.774 350.314 143.825 348.959C141.877 347.604 140.444 345.921 139.526 343.91C138.644 341.907 138.437 339.685 138.906 337.244L148.5 339.377C148.336 340.779 148.576 341.938 149.22 342.856C149.872 343.738 150.848 344.324 152.148 344.613C153.484 344.91 154.604 344.846 155.51 344.42C156.424 343.959 157.002 343.184 157.244 342.095C157.447 341.181 157.299 340.355 156.799 339.617C156.334 338.887 155.688 338.227 154.86 337.637C154.068 337.056 152.9 336.335 151.358 335.476C149.132 334.207 147.346 333.035 145.999 331.962C144.652 330.888 143.594 329.509 142.824 327.826C142.055 326.143 141.928 324.142 142.444 321.823C143.209 318.379 145.054 315.968 147.979 314.589C150.912 313.176 154.381 312.914 158.387 313.805C162.464 314.711 165.531 316.425 167.589 318.948C169.654 321.435 170.388 324.438 169.791 327.956L160.039 325.789C160.234 324.578 160.002 323.549 159.342 322.702C158.69 321.819 157.731 321.238 156.466 320.956C155.376 320.714 154.432 320.818 153.631 321.267C152.838 321.681 152.321 322.432 152.079 323.522C151.813 324.716 152.169 325.773 153.145 326.69C154.121 327.608 155.718 328.719 157.936 330.023C160.146 331.363 161.907 332.565 163.219 333.631C164.566 334.705 165.628 336.066 166.405 337.714C167.182 339.362 167.324 341.293 166.832 343.507C166.364 345.615 165.393 347.409 163.921 348.889C162.484 350.377 160.633 351.404 158.368 351.97C156.104 352.536 153.583 352.511 150.807 351.893ZM187.17 320.755L178.945 357.76L169.931 355.757L178.156 318.752L187.17 320.755ZM215.666 339.369C215.271 337.991 214.512 336.845 213.387 335.931C212.306 334.99 210.921 334.332 209.235 333.957C206.318 333.309 203.766 333.756 201.579 335.298C199.4 336.805 197.956 339.158 197.245 342.356C196.487 345.764 196.807 348.638 198.205 350.977C199.646 353.289 201.983 354.804 205.216 355.523C207.43 356.015 209.417 355.867 211.178 355.078C212.975 354.297 214.459 352.93 215.63 350.978L204.191 348.436L205.667 341.794L225.277 346.152L223.414 354.534C222.246 356.634 220.64 358.471 218.593 360.045C216.582 361.626 214.214 362.741 211.489 363.389C208.763 364.037 205.854 364.018 202.761 363.33C199.107 362.518 196.014 361.001 193.484 358.779C190.997 356.53 189.261 353.802 188.277 350.596C187.329 347.398 187.26 343.972 188.073 340.317C188.885 336.662 190.398 333.587 192.612 331.092C194.869 328.57 197.597 326.834 200.795 325.886C204.001 324.902 207.431 324.816 211.086 325.628C215.514 326.612 219.001 328.512 221.546 331.328C224.127 334.151 225.488 337.569 225.628 341.583L215.666 339.369ZM258.734 375.494L249.72 373.491L239.717 347.315L234.644 370.14L225.63 368.136L233.855 331.131L242.869 333.135L252.849 359.416L257.945 336.486L266.959 338.489L258.734 375.494ZM302.071 345.74C305.691 346.544 308.727 348.067 311.179 350.309C313.639 352.515 315.322 355.231 316.227 358.456C317.168 361.689 317.233 365.133 316.42 368.788C315.608 372.443 314.091 375.535 311.869 378.066C309.682 380.604 307.004 382.368 303.833 383.36C300.662 384.352 297.267 384.445 293.647 383.641C290.028 382.836 286.992 381.314 284.54 379.072C282.088 376.831 280.391 374.093 279.45 370.86C278.544 367.635 278.498 364.195 279.31 360.54C280.122 356.885 281.622 353.789 283.809 351.251C286.03 348.721 288.723 346.977 291.886 346.021C295.056 345.029 298.452 344.935 302.071 345.74ZM301.415 348.692C298.287 347.997 295.419 348.041 292.811 348.826C290.203 349.611 287.996 351.075 286.192 353.219C284.431 355.335 283.191 358.01 282.473 361.243C281.762 364.441 281.752 367.389 282.443 370.087C283.169 372.793 284.544 375.072 286.566 376.923C288.597 378.738 291.176 379.994 294.303 380.689C297.431 381.384 300.299 381.339 302.908 380.555C305.524 379.735 307.716 378.249 309.485 376.098C311.289 373.954 312.547 371.283 313.258 368.085C313.976 364.852 313.968 361.9 313.234 359.229C312.543 356.531 311.183 354.274 309.152 352.458C307.122 350.642 304.543 349.387 301.415 348.692ZM300.554 352.815C298.305 352.315 296.175 352.358 294.164 352.944C292.196 353.502 290.503 354.564 289.086 356.13C287.703 357.703 286.747 359.685 286.215 362.075C285.684 364.464 285.712 366.665 286.297 368.676C286.918 370.695 287.998 372.391 289.536 373.766C291.117 375.113 293.033 376.036 295.282 376.536C298.058 377.153 300.623 376.894 302.978 375.758C305.333 374.621 307.08 372.816 308.22 370.34L300.471 368.618C299.491 370.207 298.123 370.806 296.366 370.416C295.065 370.127 294.155 369.408 293.636 368.26C293.117 367.112 293.068 365.589 293.49 363.692C293.912 361.794 294.601 360.435 295.558 359.615C296.514 358.795 297.643 358.53 298.943 358.819C299.822 359.014 300.509 359.406 301.005 359.996C301.536 360.593 301.834 361.324 301.901 362.187L309.65 363.909C309.681 361.113 308.867 358.719 307.208 356.728C305.583 354.744 303.365 353.44 300.554 352.815Z" fill="white"/>
</g>
</svg>
