<svg width="394" height="578" viewBox="0 0 394 578" fill="none" xmlns="http://www.w3.org/2000/svg">
<mask id="mask0_281_1282" style="mask-type:alpha" maskUnits="userSpaceOnUse" x="0" y="0" width="394" height="578">
<rect width="394" height="578" fill="#D9D9D9"/>
</mask>
<g mask="url(#mask0_281_1282)">
<circle cx="198.936" cy="289.374" r="182.521" transform="rotate(-10.9911 198.936 289.374)" fill="#06B6D4"/>
<path d="M118.811 236.541C122.152 235.892 125.204 236.002 127.966 236.872C130.758 237.735 133.065 239.239 134.887 241.385C136.71 243.53 137.919 246.138 138.515 249.208C139.106 252.249 138.961 255.12 138.08 257.822C137.198 260.523 135.631 262.827 133.377 264.733C131.147 266.603 128.362 267.863 125.02 268.512L111.699 271.099L105.49 239.128L118.811 236.541ZM122.381 259.746C124.638 259.307 126.31 258.342 127.395 256.851C128.479 255.359 128.8 253.47 128.355 251.182C127.911 248.894 126.907 247.261 125.342 246.284C123.778 245.307 121.867 245.038 119.609 245.477L117.216 245.941L119.987 260.211L122.381 259.746ZM150.625 238.656L151.388 242.585L161.323 240.655L162.787 248.196L152.853 250.126L153.73 254.641L165.019 252.449L166.571 260.441L145.258 264.581L139.048 232.61L160.362 228.471L161.914 236.464L150.625 238.656ZM182.919 257.594C179.096 258.337 175.762 258.063 172.919 256.772C170.099 255.445 168.248 253.071 167.365 249.65L178.022 247.58C178.529 249.388 179.52 250.148 180.995 249.861C181.537 249.756 181.965 249.548 182.28 249.237C182.618 248.89 182.735 248.446 182.63 247.904C182.484 247.151 181.96 246.628 181.06 246.334C180.154 246.011 178.784 245.714 176.951 245.445C174.764 245.121 172.925 244.743 171.436 244.314C169.977 243.879 168.637 243.093 167.417 241.955C166.196 240.818 165.399 239.207 165.026 237.124C164.622 235.047 164.807 233.184 165.58 231.534C166.377 229.849 167.621 228.451 169.311 227.342C171.032 226.227 173.051 225.444 175.369 224.994C179.282 224.234 182.559 224.535 185.197 225.897C187.866 227.253 189.579 229.56 190.337 232.818L179.545 234.914C179.339 234.016 178.988 233.413 178.49 233.104C177.993 232.794 177.443 232.698 176.841 232.815C176.419 232.897 176.103 233.114 175.89 233.468C175.672 233.792 175.612 234.209 175.712 234.721C175.852 235.444 176.36 235.97 177.237 236.299C178.137 236.593 179.525 236.901 181.399 237.225C183.562 237.585 185.359 237.986 186.787 238.427C188.247 238.862 189.578 239.604 190.781 240.651C191.984 241.698 192.766 243.155 193.129 245.021C193.509 246.978 193.369 248.833 192.71 250.585C192.045 252.308 190.879 253.784 189.212 255.013C187.545 256.243 185.448 257.103 182.919 257.594ZM202.387 220.309L208.597 252.279L198.572 254.226L192.363 222.256L202.387 220.309ZM228.635 226.551C228.121 225.995 227.47 225.621 226.684 225.43C225.891 225.21 224.983 225.198 223.959 225.397C222.033 225.771 220.665 226.693 219.857 228.162C219.043 229.601 218.847 231.404 219.268 233.572C219.753 236.07 220.703 237.823 222.116 238.829C223.53 239.835 225.456 240.102 227.895 239.628C230.213 239.178 231.898 237.882 232.95 235.741L224.958 237.293L223.581 230.204L239.882 227.038L241.829 237.062C240.906 239.709 239.392 242.128 237.287 244.317C235.176 246.477 232.254 247.919 228.521 248.644C225.21 249.287 222.188 249.171 219.456 248.296C216.749 247.385 214.493 245.823 212.689 243.612C210.915 241.395 209.721 238.706 209.108 235.545C208.494 232.384 208.594 229.444 209.409 226.724C210.254 223.998 211.765 221.721 213.94 219.893C216.109 218.034 218.835 216.786 222.116 216.149C226.301 215.336 229.898 215.684 232.909 217.192C235.95 218.695 238.048 221.13 239.202 224.499L228.635 226.551ZM277.741 238.85L267.716 240.797L253.982 226.783L257.104 242.858L247.079 244.805L240.87 212.835L250.895 210.888L264.681 225.173L261.507 208.827L271.531 206.88L277.741 238.85ZM98.5453 324.916C94.7221 325.658 91.3887 325.384 88.5451 324.093C85.7257 322.766 83.8745 320.393 82.9914 316.972L93.6482 314.902C94.1554 316.709 95.1466 317.469 96.6217 317.183C97.1635 317.077 97.5917 316.869 97.9062 316.558C98.2449 316.211 98.3617 315.767 98.2564 315.225C98.1102 314.472 97.5869 313.949 96.6864 313.656C95.78 313.332 94.4104 313.036 92.5775 312.767C90.3901 312.442 88.5518 312.065 87.0627 311.635C85.6036 311.2 84.2638 310.414 83.0432 309.276C81.8226 308.139 81.0257 306.529 80.6523 304.446C80.2489 302.369 80.4337 300.505 81.2067 298.855C82.0039 297.17 83.2477 295.772 84.9378 294.663C86.6581 293.548 88.6773 292.765 90.9953 292.315C94.9088 291.555 98.185 291.856 100.824 293.218C103.493 294.574 105.206 296.881 105.964 300.139L95.1712 302.235C94.9657 301.338 94.6142 300.734 94.1167 300.425C93.6192 300.115 93.0695 300.019 92.4674 300.136C92.0459 300.218 91.729 300.436 91.5165 300.789C91.2982 301.113 91.2387 301.531 91.3381 302.042C91.4784 302.765 91.9867 303.291 92.863 303.621C93.7635 303.914 95.1511 304.223 97.0258 304.546C99.1889 304.907 100.985 305.308 102.414 305.749C103.873 306.184 105.204 306.925 106.407 307.972C107.61 309.019 108.393 310.476 108.755 312.343C109.135 314.299 108.996 316.154 108.337 317.906C107.671 319.629 106.505 321.105 104.839 322.335C103.172 323.564 101.074 324.425 98.5453 324.916ZM133.096 284.701L134.639 292.648L126.15 294.297L130.816 318.32L120.791 320.267L116.125 296.244L107.726 297.875L106.183 289.928L133.096 284.701ZM158.1 313.021L149.866 302.718L149.821 302.727L152.049 314.196L142.024 316.143L135.815 284.173L150.716 281.279C153.305 280.776 155.609 280.813 157.626 281.389C159.638 281.936 161.25 282.919 162.463 284.339C163.701 285.723 164.512 287.409 164.898 289.396C165.313 291.533 165.079 293.547 164.197 295.436C163.344 297.32 161.874 298.839 159.787 299.994L169.118 310.881L158.1 313.021ZM148.523 296.044L152.497 295.272C153.46 295.085 154.142 294.734 154.542 294.219C154.936 293.674 155.042 292.934 154.861 292.001C154.697 291.158 154.312 290.546 153.707 290.163C153.132 289.775 152.378 289.672 151.444 289.853L147.471 290.625L148.523 296.044ZM191.838 301.455L181.181 303.524L180.539 308.663L170.017 310.706L175.503 276.464L187.063 274.219L204.923 303.927L194.357 305.979L191.838 301.455ZM187.935 294.387L183.317 286.053L182.155 295.51L187.935 294.387ZM226.098 266.638L227.642 274.585L219.152 276.234L223.818 300.257L213.793 302.204L209.128 278.181L200.729 279.812L199.185 271.865L226.098 266.638ZM240.394 272.156L241.157 276.084L251.091 274.155L252.556 281.696L242.622 283.625L243.499 288.141L254.788 285.948L256.34 293.941L235.026 298.08L228.817 266.11L250.131 261.97L251.683 269.963L240.394 272.156ZM275.629 268.358C275.115 267.802 274.464 267.428 273.678 267.238C272.885 267.017 271.977 267.006 270.953 267.204C269.027 267.579 267.659 268.5 266.851 269.969C266.037 271.408 265.841 273.211 266.262 275.379C266.747 277.877 267.697 279.63 269.11 280.636C270.524 281.642 272.45 281.909 274.889 281.435C277.207 280.985 278.892 279.689 279.944 277.548L271.952 279.1L270.575 272.011L286.876 268.845L288.823 278.869C287.9 281.517 286.386 283.935 284.281 286.124C282.17 288.284 279.248 289.726 275.515 290.451C272.204 291.094 269.182 290.978 266.45 290.103C263.743 289.192 261.487 287.63 259.683 285.419C257.909 283.202 256.715 280.513 256.102 277.352C255.488 274.191 255.588 271.251 256.403 268.531C257.248 265.805 258.759 263.528 260.934 261.7C263.103 259.841 265.829 258.593 269.11 257.956C273.295 257.143 276.892 257.491 279.903 259C282.944 260.502 285.041 262.937 286.196 266.306L275.629 268.358ZM318.57 248.678L311.424 273.168L313.31 282.876L303.285 284.823L301.4 275.115L285.606 255.08L297.076 252.853L304.38 263.196L307.281 250.871L318.57 248.678Z" fill="black"/>
<path d="M157.316 349.161L150.221 350.539L149.706 354.161L145.954 354.89L148.895 335.805L153.055 334.997L162.927 351.593L159.149 352.327L157.316 349.161ZM155.791 346.49L151.766 339.538L150.635 347.492L155.791 346.49ZM168.344 347.601L174.215 346.461L174.765 349.294L165.321 351.128L161.861 333.313L165.435 332.619L168.344 347.601ZM177.149 330.344L180.609 348.159L177.036 348.853L173.576 331.038L177.149 330.344ZM194.125 332.609C193.571 331.94 192.899 331.479 192.108 331.226C191.317 330.974 190.446 330.94 189.493 331.125C188.438 331.33 187.548 331.75 186.824 332.385C186.1 333.02 185.594 333.825 185.306 334.799C185.019 335.773 184.987 336.838 185.212 337.995C185.443 339.186 185.875 340.18 186.506 340.975C187.154 341.767 187.942 342.321 188.868 342.635C189.794 342.95 190.81 343 191.916 342.785C193.278 342.52 194.323 341.947 195.052 341.063C195.777 340.163 196.151 339.04 196.172 337.694L190.046 338.884L189.516 336.153L199.164 334.279L199.768 337.393C199.771 338.681 199.484 339.929 198.906 341.136C198.328 342.343 197.481 343.39 196.365 344.278C195.262 345.146 193.945 345.728 192.413 346.026C190.695 346.359 189.063 346.279 187.52 345.784C185.989 345.269 184.69 344.4 183.623 343.177C182.573 341.951 181.877 340.462 181.537 338.709C181.196 336.956 181.284 335.315 181.799 333.785C182.328 332.234 183.207 330.942 184.436 329.909C185.679 328.855 187.152 328.163 188.853 327.833C190.861 327.443 192.701 327.597 194.373 328.297C196.042 328.979 197.329 330.151 198.234 331.811L194.125 332.609ZM218.968 340.709L215.395 341.403L204.929 330.749L207.304 342.975L203.731 343.669L200.266 325.828L203.839 325.134L214.309 335.814L211.93 323.563L215.503 322.869L218.968 340.709ZM222.612 321.514L226.072 339.329L222.499 340.023L219.039 322.208L222.612 321.514ZM244.84 335.684L241.267 336.378L230.801 325.724L233.176 337.95L229.603 338.644L226.138 320.803L229.711 320.109L240.181 330.789L237.802 318.538L241.375 317.844L244.84 335.684ZM258.356 320.134C257.802 319.465 257.13 319.004 256.34 318.751C255.549 318.499 254.677 318.465 253.724 318.65C252.669 318.855 251.78 319.275 251.056 319.91C250.331 320.545 249.825 321.35 249.538 322.324C249.25 323.298 249.219 324.363 249.444 325.52C249.675 326.711 250.106 327.705 250.737 328.5C251.386 329.292 252.173 329.846 253.099 330.16C254.026 330.475 255.042 330.525 256.148 330.31C257.509 330.045 258.554 329.472 259.283 328.589C260.009 327.688 260.382 326.565 260.403 325.219L254.278 326.409L253.747 323.678L263.395 321.804L264 324.918C264.003 326.206 263.715 327.454 263.138 328.661C262.56 329.868 261.713 330.915 260.596 331.803C259.493 332.671 258.176 333.253 256.645 333.551C254.926 333.884 253.295 333.804 251.751 333.309C250.221 332.794 248.922 331.925 247.854 330.702C246.804 329.476 246.109 327.987 245.768 326.234C245.428 324.481 245.515 322.84 246.03 321.31C246.559 319.759 247.438 318.467 248.668 317.434C249.911 316.38 251.383 315.688 253.085 315.358C255.093 314.968 256.933 315.122 258.605 315.822C260.273 316.504 261.56 317.676 262.465 319.336L258.356 320.134ZM105.958 383.9L102.19 396.682L103.395 402.884L99.8217 403.578L98.6171 397.376L90.3127 386.938L94.3453 386.155L99.7551 393.553L101.977 384.673L105.958 383.9ZM119.783 399.887C118.116 400.211 116.508 400.117 114.961 399.605C113.414 399.093 112.098 398.228 111.014 397.008C109.926 395.772 109.212 394.277 108.871 392.524C108.534 390.789 108.64 389.153 109.189 387.616C109.735 386.062 110.63 384.758 111.873 383.704C113.116 382.651 114.571 381.962 116.239 381.638C117.924 381.311 119.531 381.405 121.061 381.92C122.608 382.431 123.917 383.307 124.988 384.547C126.073 385.767 126.783 387.244 127.12 388.98C127.461 390.733 127.358 392.386 126.812 393.94C126.28 395.473 125.393 396.767 124.149 397.821C122.906 398.874 121.451 399.563 119.783 399.887ZM119.164 396.697C120.236 396.488 121.134 396.067 121.858 395.432C122.579 394.78 123.081 393.958 123.366 392.967C123.65 391.976 123.676 390.885 123.445 389.694C123.214 388.503 122.782 387.509 122.151 386.714C121.517 385.901 120.745 385.336 119.835 385.018C118.926 384.7 117.936 384.646 116.864 384.854C115.792 385.062 114.885 385.485 114.144 386.124C113.42 386.759 112.915 387.572 112.631 388.563C112.344 389.537 112.315 390.619 112.547 391.81C112.778 393.002 113.211 394.003 113.846 394.816C114.48 395.629 115.254 396.202 116.166 396.537C117.093 396.852 118.092 396.905 119.164 396.697ZM131.581 378.923L133.722 389.949C133.957 391.157 134.452 392.023 135.207 392.548C135.959 393.055 136.905 393.198 138.045 392.976C139.202 392.752 140.034 392.263 140.541 391.512C141.045 390.743 141.18 389.754 140.945 388.546L138.804 377.52L142.403 376.821L144.539 387.822C144.833 389.336 144.751 390.685 144.292 391.869C143.847 393.033 143.123 393.985 142.119 394.728C141.133 395.467 139.968 395.967 138.623 396.228C137.296 396.486 136.037 396.457 134.845 396.141C133.671 395.821 132.668 395.204 131.837 394.288C131.003 393.355 130.438 392.132 130.144 390.618L128.008 379.617L131.581 378.923ZM158.503 392.181L153.225 386.002L151.54 386.33L152.888 393.272L149.315 393.966L145.855 376.151L152.542 374.852C153.92 374.584 155.142 374.603 156.208 374.908C157.27 375.196 158.121 375.711 158.759 376.452C159.411 377.173 159.836 378.044 160.035 379.065C160.263 380.239 160.129 381.368 159.633 382.453C159.135 383.521 158.248 384.365 156.973 384.983L162.638 391.378L158.503 392.181ZM151.02 383.65L154.006 383.07C154.976 382.881 155.654 382.511 156.041 381.959C156.425 381.39 156.536 380.689 156.374 379.855C156.216 379.038 155.855 378.455 155.293 378.105C154.727 377.738 153.959 377.649 152.99 377.837L150.003 378.417L151.02 383.65ZM222.652 370.241C223.692 370.233 224.615 370.574 225.42 371.266C226.225 371.957 226.73 372.83 226.935 373.885C227.12 374.838 227.045 375.726 226.711 376.55C226.391 377.354 225.827 378.046 225.022 378.626C224.216 379.207 223.21 379.614 222.002 379.849L214.319 381.341L210.859 363.526L218.21 362.098C219.418 361.863 220.494 361.858 221.438 362.08C222.398 362.3 223.168 362.715 223.746 363.327C224.341 363.936 224.724 364.682 224.896 365.567C225.097 366.605 224.985 367.527 224.559 368.334C224.15 369.137 223.514 369.773 222.652 370.241ZM215.86 370.182L219.127 369.548C219.978 369.383 220.596 369.068 220.983 368.605C221.367 368.124 221.489 367.526 221.35 366.812C221.211 366.097 220.874 365.589 220.339 365.287C219.803 364.985 219.11 364.916 218.259 365.081L214.993 365.716L215.86 370.182ZM220.926 377.038C221.794 376.87 222.426 376.535 222.823 376.034C223.238 375.53 223.372 374.903 223.226 374.155C223.078 373.389 222.707 372.843 222.114 372.517C221.517 372.174 220.785 372.086 219.918 372.255L216.395 372.939L217.327 377.737L220.926 377.038ZM230.782 359.656L232.923 370.682C233.158 371.89 233.653 372.757 234.408 373.281C235.16 373.788 236.106 373.931 237.246 373.71C238.403 373.485 239.235 372.997 239.742 372.245C240.246 371.476 240.381 370.488 240.146 369.279L238.005 358.253L241.604 357.555L243.74 368.555C244.034 370.069 243.952 371.418 243.493 372.602C243.048 373.766 242.324 374.719 241.32 375.461C240.334 376.2 239.169 376.7 237.824 376.961C236.497 377.219 235.238 377.19 234.046 376.874C232.872 376.554 231.869 375.937 231.038 375.021C230.204 374.089 229.639 372.865 229.345 371.351L227.209 360.35L230.782 359.656ZM254.702 373.683C253.46 373.924 252.295 373.93 251.209 373.699C250.139 373.466 249.238 373.005 248.504 372.318C247.77 371.63 247.289 370.744 247.06 369.658L250.889 368.915C251.082 369.636 251.45 370.165 251.992 370.502C252.551 370.834 253.238 370.921 254.055 370.763C254.889 370.601 255.506 370.278 255.906 369.794C256.304 369.293 256.439 368.719 256.314 368.073C256.211 367.545 255.965 367.143 255.576 366.865C255.187 366.588 254.727 366.403 254.197 366.312C253.681 366.2 252.975 366.108 252.078 366.035C250.854 365.92 249.846 365.771 249.051 365.59C248.27 365.389 247.552 365.007 246.896 364.446C246.253 363.865 245.823 363.012 245.604 361.889C245.4 360.834 245.485 359.864 245.86 358.979C246.236 358.094 246.86 357.355 247.734 356.761C248.604 356.151 249.652 355.727 250.877 355.489C252.714 355.132 254.291 355.293 255.606 355.974C256.935 356.634 257.814 357.752 258.244 359.328L254.313 360.092C254.16 359.486 253.799 359.035 253.23 358.74C252.674 358.424 251.996 358.344 251.197 358.499C250.499 358.634 249.972 358.922 249.616 359.362C249.277 359.799 249.174 360.357 249.306 361.038C249.399 361.514 249.629 361.884 249.998 362.148C250.381 362.392 250.822 362.571 251.321 362.686C251.834 362.781 252.541 362.873 253.441 362.963C254.664 363.078 255.674 363.235 256.472 363.434C257.27 363.632 257.999 364.02 258.658 364.598C259.318 365.176 259.755 366.018 259.97 367.124C260.155 368.077 260.08 369.01 259.745 369.923C259.411 370.835 258.815 371.631 257.958 372.309C257.097 372.971 256.012 373.429 254.702 373.683ZM264.182 353.169L267.642 370.984L264.069 371.678L260.609 353.863L264.182 353.169ZM286.41 367.339L282.837 368.033L272.372 357.379L274.746 369.605L271.173 370.299L267.708 352.458L271.281 351.764L281.751 362.444L279.372 350.193L282.945 349.499L286.41 367.339ZM290.615 351.029L291.482 355.495L297.48 354.33L298.03 357.163L292.032 358.328L292.949 363.05L299.713 361.736L300.278 364.646L289.941 366.654L286.476 348.813L296.813 346.805L297.378 349.715L290.615 351.029ZM309.711 362.999C308.469 363.241 307.305 363.246 306.218 363.016C305.149 362.782 304.247 362.321 303.513 361.634C302.779 360.947 302.298 360.06 302.07 358.974L305.898 358.231C306.091 358.953 306.459 359.481 307.001 359.818C307.56 360.151 308.248 360.238 309.064 360.079C309.898 359.917 310.515 359.594 310.916 359.11C311.313 358.609 311.449 358.036 311.323 357.389C311.221 356.862 310.975 356.459 310.585 356.182C310.196 355.904 309.736 355.72 309.206 355.628C308.69 355.517 307.984 355.424 307.087 355.351C305.864 355.236 304.855 355.087 304.06 354.906C303.28 354.705 302.561 354.323 301.905 353.762C301.262 353.181 300.832 352.328 300.614 351.205C300.409 350.15 300.494 349.18 300.869 348.295C301.245 347.41 301.869 346.671 302.743 346.077C303.613 345.467 304.661 345.043 305.886 344.805C307.724 344.448 309.3 344.61 310.615 345.29C311.944 345.95 312.823 347.068 313.253 348.645L309.323 349.408C309.17 348.802 308.808 348.351 308.239 348.056C307.683 347.74 307.006 347.66 306.206 347.815C305.508 347.951 304.981 348.238 304.625 348.678C304.286 349.115 304.183 349.673 304.315 350.354C304.408 350.831 304.639 351.201 305.008 351.464C305.39 351.708 305.831 351.887 306.33 352.002C306.843 352.097 307.55 352.189 308.45 352.279C309.673 352.395 310.684 352.552 311.481 352.75C312.279 352.948 313.008 353.336 313.668 353.914C314.327 354.492 314.764 355.335 314.979 356.441C315.164 357.393 315.089 358.326 314.755 359.239C314.42 360.151 313.824 360.947 312.967 361.625C312.107 362.287 311.021 362.745 309.711 362.999ZM325.264 359.979C324.022 360.22 322.858 360.225 321.771 359.995C320.702 359.761 319.8 359.301 319.066 358.613C318.332 357.926 317.851 357.039 317.623 355.954L321.451 355.21C321.644 355.932 322.012 356.461 322.554 356.797C323.113 357.13 323.801 357.217 324.618 357.058C325.451 356.896 326.068 356.573 326.469 356.09C326.866 355.589 327.002 355.015 326.876 354.368C326.774 353.841 326.528 353.438 326.138 353.161C325.749 352.883 325.289 352.699 324.76 352.608C324.244 352.496 323.537 352.404 322.64 352.331C321.417 352.215 320.408 352.067 319.614 351.885C318.833 351.684 318.114 351.303 317.458 350.741C316.815 350.16 316.385 349.308 316.167 348.185C315.962 347.13 316.047 346.16 316.423 345.275C316.798 344.389 317.423 343.65 318.296 343.057C319.166 342.446 320.214 342.022 321.439 341.784C323.277 341.427 324.853 341.589 326.168 342.269C327.497 342.929 328.377 344.048 328.806 345.624L324.876 346.387C324.723 345.781 324.362 345.331 323.792 345.035C323.236 344.719 322.559 344.639 321.759 344.794C321.061 344.93 320.534 345.218 320.178 345.657C319.84 346.094 319.736 346.653 319.868 347.333C319.961 347.81 320.192 348.18 320.561 348.444C320.943 348.687 321.384 348.866 321.883 348.981C322.396 349.076 323.103 349.168 324.003 349.258C325.226 349.374 326.237 349.531 327.035 349.729C327.832 349.927 328.561 350.315 329.221 350.894C329.88 351.472 330.318 352.314 330.532 353.42C330.717 354.373 330.643 355.305 330.308 356.218C329.973 357.131 329.377 357.926 328.52 358.605C327.66 359.266 326.574 359.724 325.264 359.979ZM159.353 431.745L157.041 430.208C155.678 432.009 153.805 433.14 151.423 433.603C150.113 433.857 148.913 433.861 147.823 433.614C146.747 433.346 145.858 432.856 145.154 432.145C144.448 431.417 143.989 430.509 143.778 429.42C143.55 428.246 143.676 427.127 144.158 426.062C144.64 424.997 145.471 424.05 146.652 423.22C146.084 422.748 145.648 422.276 145.345 421.806C145.038 421.318 144.827 420.776 144.711 420.181C144.552 419.364 144.623 418.591 144.923 417.862C145.219 417.115 145.723 416.479 146.433 415.953C147.16 415.423 148.051 415.056 149.106 414.851C150.178 414.643 151.136 414.668 151.981 414.928C152.826 415.188 153.502 415.622 154.008 416.229C154.515 416.837 154.824 417.563 154.934 418.407L151.463 419.081C151.371 418.516 151.153 418.117 150.807 417.884C150.458 417.634 150.037 417.557 149.544 417.653C149.067 417.745 148.696 417.968 148.429 418.32C148.175 418.651 148.091 419.038 148.177 419.481C148.26 419.906 148.47 420.307 148.808 420.683C149.143 421.041 149.659 421.471 150.356 421.971L155.711 425.54C155.738 425.499 155.757 425.46 155.767 425.423C155.778 425.385 155.788 425.348 155.799 425.311L156.782 422.603L160.509 421.88L159.332 425.366C159.121 426.096 158.877 426.796 158.601 427.468L163.743 430.893L159.353 431.745ZM150.95 430.623C152.346 430.352 153.483 429.618 154.364 428.423L149.131 424.937C147.623 425.989 146.999 427.188 147.26 428.532C147.409 429.297 147.824 429.888 148.505 430.303C149.182 430.701 149.998 430.808 150.95 430.623ZM171.656 410.869L173.797 421.895C174.032 423.103 174.527 423.969 175.282 424.493C176.034 425 176.98 425.143 178.12 424.922C179.277 424.697 180.109 424.209 180.616 423.457C181.12 422.688 181.255 421.7 181.02 420.492L178.879 409.466L182.477 408.767L184.614 419.767C184.908 421.282 184.826 422.631 184.367 423.815C183.922 424.978 183.198 425.931 182.194 426.673C181.208 427.412 180.042 427.912 178.698 428.173C177.371 428.431 176.112 428.402 174.92 428.086C173.746 427.767 172.743 427.149 171.912 426.234C171.077 425.301 170.513 424.077 170.219 422.563L168.082 411.563L171.656 410.869ZM195.576 424.895C194.333 425.137 193.169 425.142 192.083 424.912C191.013 424.678 190.111 424.217 189.378 423.53C188.644 422.843 188.163 421.956 187.934 420.87L191.763 420.127C191.956 420.849 192.323 421.378 192.865 421.714C193.424 422.047 194.112 422.134 194.929 421.975C195.763 421.813 196.38 421.49 196.78 421.006C197.177 420.505 197.313 419.932 197.188 419.285C197.085 418.758 196.839 418.355 196.45 418.078C196.06 417.8 195.601 417.616 195.071 417.524C194.555 417.413 193.848 417.32 192.951 417.247C191.728 417.132 190.719 416.983 189.925 416.802C189.144 416.601 188.426 416.219 187.769 415.658C187.127 415.077 186.696 414.225 186.478 413.102C186.273 412.047 186.359 411.076 186.734 410.191C187.109 409.306 187.734 408.567 188.608 407.973C189.478 407.363 190.525 406.939 191.751 406.701C193.588 406.344 195.165 406.506 196.48 407.186C197.809 407.846 198.688 408.964 199.118 410.541L195.187 411.304C195.034 410.698 194.673 410.247 194.104 409.952C193.548 409.636 192.87 409.556 192.07 409.711C191.373 409.847 190.846 410.134 190.49 410.574C190.151 411.011 190.048 411.57 190.18 412.25C190.272 412.727 190.503 413.097 190.872 413.361C191.255 413.604 191.696 413.783 192.195 413.898C192.708 413.993 193.414 414.085 194.315 414.175C195.538 414.291 196.548 414.448 197.346 414.646C198.144 414.844 198.872 415.232 199.532 415.81C200.192 416.389 200.629 417.231 200.844 418.337C201.029 419.289 200.954 420.222 200.619 421.135C200.284 422.047 199.688 422.843 198.831 423.521C197.971 424.183 196.886 424.641 195.576 424.895ZM205.616 407.266L206.484 411.732L212.482 410.567L213.032 413.4L207.034 414.565L207.951 419.287L214.715 417.973L215.28 420.883L204.943 422.891L201.478 405.05L211.815 403.042L212.38 405.952L205.616 407.266ZM227.715 418.468L222.436 412.289L220.752 412.616L222.1 419.558L218.527 420.252L215.067 402.437L221.754 401.138C223.132 400.871 224.354 400.889 225.42 401.195C226.482 401.483 227.333 401.997 227.971 402.738C228.623 403.459 229.048 404.33 229.247 405.351C229.475 406.525 229.341 407.655 228.845 408.74C228.347 409.808 227.46 410.651 226.185 411.27L231.85 417.665L227.715 418.468ZM220.231 409.936L223.218 409.356C224.188 409.168 224.866 408.798 225.253 408.246C225.637 407.677 225.748 406.975 225.586 406.142C225.428 405.325 225.067 404.742 224.505 404.392C223.939 404.025 223.171 403.936 222.201 404.124L219.215 404.704L220.231 409.936ZM256.197 412.936L252.623 413.63L242.158 402.976L244.533 415.202L240.959 415.896L237.494 398.055L241.068 397.361L251.538 408.041L249.158 395.79L252.732 395.096L256.197 412.936ZM260.401 396.625L261.269 401.092L267.267 399.927L267.817 402.76L261.819 403.925L262.736 408.647L269.5 407.333L270.065 410.243L259.728 412.25L256.263 394.41L266.6 392.402L267.165 395.312L260.401 396.625ZM273.985 393.987L274.853 398.454L280.851 397.289L281.401 400.122L275.403 401.287L276.32 406.008L283.084 404.695L283.649 407.604L273.312 409.612L269.847 391.771L280.184 389.764L280.749 392.673L273.985 393.987ZM289.664 387.949C291.535 387.586 293.248 387.633 294.803 388.09C296.374 388.544 297.675 389.377 298.705 390.59C299.749 391.782 300.444 393.271 300.791 395.058C301.138 396.845 301.051 398.486 300.529 399.982C300.021 401.458 299.124 402.701 297.836 403.71C296.566 404.716 294.995 405.401 293.124 405.764L286.896 406.974L283.436 389.159L289.664 387.949ZM292.406 402.752C294.278 402.388 295.625 401.597 296.448 400.378C297.27 399.158 297.501 397.622 297.141 395.767C296.781 393.912 295.99 392.565 294.767 391.725C293.541 390.869 291.993 390.622 290.121 390.986L287.594 391.476L289.879 403.243L292.406 402.752Z" fill="black"/>
<path d="M206.606 373.747C206.76 373.518 206.7 373.208 206.471 373.053L202.741 370.536C202.512 370.382 202.201 370.442 202.047 370.671C201.892 370.9 201.953 371.211 202.181 371.365L205.497 373.602L203.26 376.918C203.106 377.147 203.166 377.458 203.395 377.612C203.624 377.767 203.935 377.706 204.089 377.477L206.606 373.747ZM165.789 381.314L165.884 381.805L206.287 373.958L206.191 373.468L206.096 372.977L165.694 380.824L165.789 381.314Z" fill="black"/>
<path d="M171.016 159.718C171.252 157.795 173.811 157.298 174.75 158.993L181.932 171.955C182.352 172.713 183.212 173.114 184.063 172.949L198.609 170.123C200.511 169.754 201.775 172.034 200.453 173.451L190.345 184.287C189.754 184.92 189.639 185.863 190.058 186.62L197.241 199.582C198.18 201.277 196.402 203.183 194.646 202.364L181.217 196.099C180.431 195.733 179.5 195.914 178.909 196.548L168.801 207.383C167.479 208.8 165.117 207.698 165.353 205.775L167.161 191.068C167.267 190.208 166.807 189.377 166.022 189.011L152.593 182.746C150.837 181.927 151.155 179.34 153.057 178.971L167.604 176.145C168.454 175.98 169.102 175.286 169.207 174.426L171.016 159.718Z" fill="#FBD504"/>
<path d="M217.476 150.691C217.713 148.768 220.272 148.271 221.211 149.966L228.393 162.927C228.813 163.685 229.673 164.086 230.524 163.921L245.07 161.096C246.972 160.727 248.236 163.007 246.914 164.424L236.806 175.26C236.215 175.893 236.099 176.835 236.519 177.593L243.702 190.555C244.641 192.249 242.862 194.156 241.107 193.337L227.678 187.072C226.892 186.706 225.961 186.887 225.37 187.52L215.262 198.356C213.94 199.773 211.578 198.671 211.814 196.748L213.622 182.04C213.728 181.18 213.268 180.35 212.483 179.984L199.054 173.719C197.298 172.9 197.616 170.313 199.518 169.943L214.065 167.118C214.915 166.953 215.563 166.259 215.668 165.399L217.476 150.691Z" fill="#FBD504"/>
<path d="M124.551 168.742C124.787 166.819 127.346 166.322 128.285 168.016L135.467 180.978C135.887 181.736 136.747 182.137 137.598 181.972L152.145 179.147C154.046 178.777 155.31 181.058 153.988 182.474L143.881 193.31C143.29 193.944 143.174 194.886 143.594 195.644L150.776 208.605C151.715 210.3 149.937 212.206 148.181 211.387L134.752 205.123C133.967 204.756 133.035 204.937 132.444 205.571L122.336 216.407C121.014 217.824 118.652 216.722 118.888 214.799L120.697 200.091C120.802 199.231 120.342 198.401 119.557 198.034L106.128 191.77C104.372 190.951 104.69 188.363 106.592 187.994L121.139 185.169C121.989 185.004 122.637 184.309 122.742 183.449L124.551 168.742Z" fill="#FBD504"/>
</g>
</svg>
