<svg width="394" height="578" viewBox="0 0 394 578" fill="none" xmlns="http://www.w3.org/2000/svg">
<mask id="mask0_281_1283" style="mask-type:alpha" maskUnits="userSpaceOnUse" x="0" y="0" width="394" height="578">
<rect width="394" height="578" fill="#D9D9D9"/>
</mask>
<g mask="url(#mask0_281_1283)">
<path d="M206.5 116L214.407 162.823L228.12 117.36L230.096 164.805L249.399 121.419L245.413 168.738L270.001 128.114L260.116 174.56L289.603 137.337L273.974 182.178L307.893 148.945L286.768 191.473L324.584 162.753L298.295 202.298L339.414 178.544L308.375 214.483L352.147 196.07L316.849 227.835L362.583 215.053L323.582 242.144L370.557 235.195L328.469 257.184L375.945 256.177L331.432 272.717L378.66 277.669L332.425 288.5L378.66 299.331L331.432 304.283L375.945 320.823L328.469 319.816L370.557 341.805L323.582 334.856L362.583 361.947L316.849 349.165L352.147 380.93L308.375 362.517L339.414 398.456L298.295 374.702L324.584 414.247L286.768 385.527L307.893 428.055L273.974 394.822L289.603 439.663L260.116 402.44L270.001 448.886L245.413 408.262L249.399 455.581L230.096 412.195L228.12 459.64L214.407 414.177L206.5 461L198.593 414.177L184.88 459.64L182.904 412.195L163.601 455.581L167.587 408.262L142.999 448.886L152.884 402.44L123.397 439.663L139.026 394.822L105.107 428.055L126.232 385.527L88.4156 414.247L114.705 374.702L73.5865 398.456L104.625 362.517L60.8534 380.93L96.1511 349.165L50.4173 361.947L89.4179 334.856L42.4427 341.805L84.5312 319.816L37.0555 320.823L81.568 304.283L34.3404 299.331L80.575 288.5L34.3404 277.669L81.568 272.717L37.0555 256.177L84.5312 257.184L42.4427 235.195L89.4179 242.144L50.4173 215.053L96.1511 227.835L60.8534 196.07L104.625 214.483L73.5865 178.544L114.705 202.298L88.4156 162.753L126.232 191.473L105.107 148.945L139.026 182.178L123.397 137.337L152.884 174.56L142.999 128.114L167.587 168.738L163.601 121.419L182.904 164.805L184.88 117.36L198.593 162.823L206.5 116Z" fill="#F98204"/>
</g>
</svg>
