<svg width="394" height="578" viewBox="0 0 394 578" fill="none" xmlns="http://www.w3.org/2000/svg">
<mask id="mask0_281_1281" style="mask-type:alpha" maskUnits="userSpaceOnUse" x="0" y="0" width="394" height="578">
<rect width="394" height="578" fill="#D9D9D9"/>
</mask>
<g mask="url(#mask0_281_1281)">
<path d="M206.5 158L214.407 204.823L228.12 159.36L230.096 206.805L249.399 163.419L245.413 210.738L270.001 170.114L260.116 216.56L289.603 179.337L273.974 224.178L307.893 190.945L286.768 233.473L324.584 204.753L298.295 244.298L339.414 220.544L308.375 256.483L352.147 238.07L316.849 269.835L362.583 257.053L323.582 284.144L370.557 277.195L328.469 299.184L375.945 298.177L331.432 314.717L378.66 319.669L332.425 330.5L378.66 341.331L331.432 346.283L375.945 362.823L328.469 361.816L370.557 383.805L323.582 376.856L362.583 403.947L316.849 391.165L352.147 422.93L308.375 404.517L339.414 440.456L298.295 416.702L324.584 456.247L286.768 427.527L307.893 470.055L273.974 436.822L289.603 481.663L260.116 444.44L270.001 490.886L245.413 450.262L249.399 497.581L230.096 454.195L228.12 501.64L214.407 456.177L206.5 503L198.593 456.177L184.88 501.64L182.904 454.195L163.601 497.581L167.587 450.262L142.999 490.886L152.884 444.44L123.397 481.663L139.026 436.822L105.107 470.055L126.232 427.527L88.4156 456.247L114.705 416.702L73.5865 440.456L104.625 404.517L60.8534 422.93L96.1511 391.165L50.4173 403.947L89.4179 376.856L42.4427 383.805L84.5312 361.816L37.0555 362.823L81.568 346.283L34.3404 341.331L80.575 330.5L34.3404 319.669L81.568 314.717L37.0555 298.177L84.5312 299.184L42.4427 277.195L89.4179 284.144L50.4173 257.053L96.1511 269.835L60.8534 238.07L104.625 256.483L73.5865 220.544L114.705 244.298L88.4156 204.753L126.232 233.473L105.107 190.945L139.026 224.178L123.397 179.337L152.884 216.56L142.999 170.114L167.587 210.738L163.601 163.419L182.904 206.805L184.88 159.36L198.593 204.823L206.5 158Z" fill="#D4F040"/>
</g>
</svg>
