<svg width="394" height="578" viewBox="0 0 394 578" fill="none" xmlns="http://www.w3.org/2000/svg">
<mask id="mask0_281_1280" style="mask-type:alpha" maskUnits="userSpaceOnUse" x="0" y="0" width="394" height="578">
<rect width="394" height="578" fill="#D9D9D9"/>
</mask>
<g mask="url(#mask0_281_1280)">
<path d="M196.5 119L201.425 192.893C202.359 206.899 221.757 209.688 226.599 196.512L252.142 127L236.05 199.287C233 212.989 250.826 221.13 259.184 209.852L303.277 150.352L267.47 215.178C260.683 227.465 275.494 240.299 286.691 231.832L345.761 187.165L293.141 239.277C283.167 249.154 293.763 265.641 306.891 260.672L376.152 234.456L310.983 269.632C298.63 276.299 304.152 295.103 318.148 294.034L391.99 288.393L319.55 303.784C305.819 306.701 305.819 326.299 319.55 329.216L391.99 344.607L318.148 338.966C304.152 337.897 298.63 356.701 310.983 363.368L376.152 398.544L306.891 372.328C293.763 367.359 283.167 383.846 293.141 393.723L345.761 445.835L286.691 401.168C275.494 392.701 260.683 405.535 267.47 417.822L303.277 482.648L259.184 423.148C250.826 411.87 233 420.011 236.05 433.713L252.142 506L226.599 436.488C221.757 423.312 202.359 426.101 201.425 440.107L196.5 514L191.575 440.107C190.641 426.101 171.243 423.312 166.401 436.488L140.858 506L156.95 433.713C160 420.011 142.174 411.87 133.816 423.148L89.7234 482.648L125.53 417.822C132.317 405.535 117.506 392.701 106.309 401.168L47.2395 445.835L99.8586 393.723C109.833 383.846 99.2373 367.359 86.1088 372.328L16.8477 398.544L82.0169 363.368C94.3698 356.701 88.8485 337.897 74.8518 338.966L1.01027 344.607L73.4499 329.216C87.1809 326.299 87.1809 306.701 73.4499 303.784L1.01027 288.393L74.8518 294.034C88.8485 295.103 94.3698 276.299 82.0169 269.632L16.8477 234.456L86.1088 260.672C99.2373 265.641 109.833 249.154 99.8586 239.277L47.2395 187.165L106.309 231.832C117.506 240.299 132.317 227.465 125.53 215.178L89.7234 150.352L133.816 209.852C142.174 221.13 160 212.989 156.95 199.287L140.858 127L166.401 196.512C171.243 209.688 190.641 206.899 191.575 192.893L196.5 119Z" fill="#06B6D4"/>
</g>
</svg>
