<svg width="394" height="578" viewBox="0 0 394 578" fill="none" xmlns="http://www.w3.org/2000/svg">
<mask id="mask0_281_1278" style="mask-type:alpha" maskUnits="userSpaceOnUse" x="0" y="0" width="394" height="578">
<rect width="394" height="578" fill="#D9D9D9"/>
</mask>
<g mask="url(#mask0_281_1278)">
<path d="M325.691 405.324C329.665 413.671 321.156 422.478 312.677 418.794L301.033 413.734C293.788 410.586 285.925 416.686 287.174 424.486L289.18 437.022C290.641 446.151 279.995 452.204 272.898 446.28L263.151 438.145C257.086 433.084 247.824 436.721 246.824 444.557L245.217 457.151C244.047 466.321 232.128 469.13 226.986 461.446L219.926 450.895C215.533 444.33 205.621 445.211 202.454 452.447L197.364 464.078C193.658 472.547 181.43 471.884 178.662 463.063L174.86 450.95C172.495 443.414 162.736 441.466 157.658 447.517L149.498 457.243C143.556 464.325 132.01 460.243 131.839 451L131.604 438.307C131.458 430.409 122.643 425.791 116.066 430.166L105.497 437.199C97.8 442.32 87.8718 435.151 90.3116 426.234L93.6623 413.989C95.7471 406.37 88.5903 399.455 81.0474 401.801L68.9244 405.571C60.0968 408.316 52.5905 398.64 57.4436 390.772L64.1085 379.967C68.2554 373.243 63.3366 364.593 55.4384 364.718L42.7443 364.92C33.5009 365.067 29.0246 353.668 35.8979 347.486L45.3371 338.996C51.2102 333.714 48.9279 324.027 41.3142 321.923L29.0775 318.54C20.1671 316.077 19.0834 303.879 27.42 299.884L38.8688 294.397C45.9923 290.983 46.5313 281.046 39.819 276.881L29.031 270.188C21.1755 265.315 23.5722 253.306 32.6968 251.821L45.2276 249.782C53.0243 248.513 56.3411 239.13 51.0739 233.244L42.6086 223.782C36.4443 216.893 42.1274 206.045 51.3006 207.191L63.8984 208.765C71.7367 209.744 77.5625 201.676 74.1672 194.544L68.7103 183.081C64.7368 174.734 73.2456 165.927 81.7244 169.611L93.3685 174.67C100.613 177.818 108.476 171.718 107.228 163.918L105.222 151.382C103.761 142.254 114.406 136.201 121.503 142.124L131.25 150.259C137.315 155.321 146.578 151.683 147.578 143.848L149.184 131.254C150.354 122.084 162.274 119.275 167.415 126.958L174.475 137.51C178.868 144.075 188.781 143.194 191.948 135.957L197.037 124.327C200.743 115.858 212.971 116.521 215.74 125.341L219.541 137.454C221.907 144.991 231.666 146.939 236.743 140.888L244.903 131.162C250.846 124.08 262.391 128.161 262.562 137.404L262.797 150.098C262.944 157.996 271.759 162.614 278.335 158.238L288.905 151.206C296.602 146.085 306.53 153.253 304.09 162.17L300.739 174.416C298.654 182.035 305.811 188.95 313.354 186.604L325.477 182.834C334.305 180.089 341.811 189.764 336.958 197.633L330.293 208.438C326.146 215.161 331.065 223.812 338.963 223.687L351.657 223.485C360.901 223.338 365.377 234.736 358.504 240.919L349.064 249.409C343.191 254.691 345.474 264.377 353.087 266.482L365.324 269.865C374.234 272.328 375.318 284.526 366.981 288.521L355.533 294.008C348.409 297.422 347.87 307.359 354.583 311.523L365.371 318.216C373.226 323.09 370.829 335.099 361.705 336.584L349.174 338.623C341.377 339.892 338.06 349.274 343.328 355.161L351.793 364.623C357.957 371.512 352.274 382.359 343.101 381.213L330.503 379.64C322.665 378.66 316.839 386.728 320.234 393.861L325.691 405.324Z" fill="#FBD504"/>
</g>
</svg>
