<svg width="394" height="578" viewBox="0 0 394 578" fill="none" xmlns="http://www.w3.org/2000/svg">
<mask id="mask0_281_1276" style="mask-type:alpha" maskUnits="userSpaceOnUse" x="0" y="0" width="394" height="578">
<rect width="394" height="578" fill="#D9D9D9"/>
</mask>
<g mask="url(#mask0_281_1276)">
<rect x="54.4609" y="186.293" width="340.426" height="219.61" rx="15" transform="rotate(12.4814 54.4609 186.293)" fill="#F98204"/>
<circle cx="133.453" cy="344" r="9" fill="white"/>
<path d="M104.38 219.288L96.961 252.453L86.6089 250.137L90.308 233.601L81.5031 248.995L72.6031 247.004L71.1964 229.326L67.4973 245.861L57.0983 243.535L64.5175 210.371L77.2585 213.221L80.1123 234.764L91.6859 216.449L104.38 219.288ZM238.59 249.312L236.746 257.557L227.94 255.586L222.365 280.506L211.966 278.18L217.541 253.26L208.828 251.311L210.672 243.067L238.59 249.312ZM251.81 252.27L244.391 285.434L233.992 283.107L241.411 249.943L251.81 252.27ZM265.174 290.428C262.052 289.729 259.343 288.352 257.048 286.298C254.784 284.25 253.177 281.759 252.227 278.825C251.277 275.891 251.165 272.8 251.891 269.552C252.618 266.305 254.036 263.556 256.146 261.306C258.256 259.057 260.768 257.503 263.681 256.647C266.633 255.766 269.67 255.675 272.793 256.373C275.916 257.072 278.609 258.445 280.872 260.493C283.143 262.509 284.738 264.981 285.657 267.908C286.607 270.842 286.719 273.933 285.993 277.181C285.266 280.429 283.848 283.177 281.738 285.427C279.659 287.684 277.144 289.252 274.192 290.133C271.272 291.021 268.266 291.119 265.174 290.428ZM267.344 280.731C269.405 281.192 271.144 280.893 272.562 279.833C273.986 278.742 274.95 277.072 275.453 274.823C275.963 272.544 275.803 270.622 274.972 269.059C274.148 267.465 272.706 266.437 270.645 265.976C268.552 265.508 266.794 265.82 265.369 266.911C263.952 267.971 262.988 269.641 262.478 271.921C261.975 274.169 262.135 276.09 262.959 277.685C263.79 279.248 265.251 280.263 267.344 280.731ZM317.809 301.858L307.41 299.532L300.132 280.393L296.402 297.069L286.003 294.743L293.422 261.579L303.821 263.905L311.036 283.324L314.829 266.367L325.228 268.694L317.809 301.858ZM355.621 310.317L353.807 307.649C350.481 308.741 346.834 308.843 342.869 307.956C340.183 307.355 337.935 306.41 336.125 305.119C334.346 303.836 333.097 302.311 332.378 300.543C331.665 298.744 331.533 296.845 331.98 294.847C332.406 292.942 333.278 291.317 334.595 289.972C335.951 288.603 337.734 287.592 339.946 286.939C338.908 284.838 338.609 282.803 339.049 280.836C339.426 279.15 340.209 277.702 341.398 276.492C342.618 275.289 344.178 274.474 346.077 274.046C347.983 273.588 350.123 273.624 352.496 274.155C354.901 274.692 356.848 275.587 358.339 276.839C359.837 278.059 360.85 279.466 361.379 281.06C361.907 282.654 361.99 284.263 361.627 285.887L352.165 283.77C352.298 283.177 352.224 282.701 351.943 282.343C351.669 281.954 351.298 281.707 350.83 281.602C350.33 281.491 349.858 281.549 349.413 281.777C349.007 281.982 348.745 282.349 348.626 282.88C348.402 283.879 348.831 285.188 349.911 286.807L355.818 295.802C356.444 295.057 357.047 294.191 357.629 293.207L357.863 292.816L367.934 295.069L367.194 296.182C365.308 299.04 363.219 301.491 360.925 303.535L367.05 312.874L355.621 310.317ZM345.452 299.926C346.576 300.178 347.661 300.24 348.705 300.113L344.331 293.724C343.716 293.98 343.212 294.326 342.82 294.763C342.465 295.176 342.232 295.632 342.12 296.131C341.938 296.943 342.128 297.707 342.689 298.423C343.282 299.146 344.203 299.647 345.452 299.926ZM64.2191 260.515L56.8 293.679L46.401 291.353L53.8202 258.189L64.2191 260.515ZM93.3025 301.845L82.9035 299.519L75.6262 280.381L71.8956 297.056L61.4967 294.73L68.9158 261.566L79.3148 263.892L86.5293 283.312L90.3227 266.355L100.722 268.681L93.3025 301.845ZM131.464 275.558L129.62 283.803L120.813 281.833L115.239 306.753L104.84 304.426L110.414 279.506L101.702 277.557L103.546 269.313L131.464 275.558ZM142.829 286.807L141.917 290.882L152.222 293.187L150.472 301.01L140.167 298.705L139.119 303.389L150.83 306.009L148.975 314.3L126.865 309.354L134.284 276.189L156.394 281.135L154.539 289.426L142.829 286.807ZM169.57 318.907L166.001 305.615L165.954 305.605L163.293 317.503L152.894 315.176L160.313 282.012L175.771 285.47C178.456 286.071 180.643 287.068 182.332 288.463C184.027 289.826 185.158 291.44 185.725 293.304C186.33 295.145 186.401 297.095 185.94 299.156C185.444 301.374 184.38 303.201 182.746 304.639C181.144 306.084 179.104 306.923 176.625 307.156L180.999 321.464L169.57 318.907ZM167.505 298.672L171.627 299.594C172.627 299.818 173.425 299.767 174.023 299.442C174.627 299.085 175.038 298.423 175.254 297.454C175.45 296.58 175.338 295.834 174.919 295.215C174.531 294.604 173.853 294.19 172.885 293.973L168.763 293.051L167.505 298.672ZM206.662 321.942L195.607 319.469L192.847 324.114L181.932 321.673L201.484 291.222L213.475 293.905L218.141 329.773L207.18 327.321L206.662 321.942ZM205.883 313.553L204.949 303.655L199.887 312.212L205.883 313.553ZM223.287 313.463C224.021 310.184 225.33 307.411 227.214 305.143C229.13 302.883 231.478 301.326 234.26 300.473C237.048 299.588 240.113 299.52 243.454 300.267C246.327 300.91 248.766 302.029 250.77 303.625C252.812 305.197 254.315 307.124 255.281 309.405C256.277 311.694 256.716 314.203 256.598 316.93L245.637 314.478C245.381 313.274 244.852 312.27 244.048 311.467C243.282 310.64 242.305 310.093 241.119 309.828C239.37 309.437 237.834 309.782 236.51 310.863C235.217 311.951 234.323 313.603 233.827 315.821C233.331 318.038 233.436 319.914 234.141 321.449C234.879 322.991 236.122 323.958 237.87 324.349C239.057 324.615 240.169 324.552 241.208 324.161C242.284 323.746 243.195 323.048 243.939 322.067L254.9 324.519C253.845 327.037 252.379 329.119 250.502 330.766C248.657 332.419 246.472 333.537 243.948 334.12C241.462 334.678 238.782 334.636 235.909 333.994C232.568 333.246 229.821 331.894 227.668 329.937C225.523 327.948 224.065 325.523 223.295 322.662C222.556 319.808 222.554 316.742 223.287 313.463ZM289.236 310.853L287.392 319.098L278.586 317.127L273.011 342.048L262.612 339.721L268.187 314.801L259.474 312.852L261.318 304.608L289.236 310.853ZM302.456 313.811L295.036 346.975L284.637 344.649L292.057 311.484L302.456 313.811ZM51.7909 343.114C48.6681 342.416 45.9593 341.039 43.6645 338.985C41.4009 336.937 39.7939 334.446 38.8436 331.512C37.8932 328.578 37.7813 325.487 38.5079 322.239C39.2344 318.991 40.6527 316.242 42.7627 313.993C44.8727 311.743 47.3844 310.19 50.2977 309.333C53.2492 308.453 56.2864 308.361 59.4092 309.06C62.532 309.759 65.2252 311.132 67.4888 313.179C69.7593 315.196 71.3542 317.667 72.2733 320.595C73.2236 323.529 73.3355 326.62 72.609 329.868C71.8825 333.115 70.4642 335.864 68.3542 338.114C66.2754 340.37 63.7602 341.939 60.8087 342.82C57.8885 343.708 54.8825 343.806 51.7909 343.114ZM53.9601 333.418C56.0211 333.879 57.7605 333.58 59.1781 332.519C60.6027 331.428 61.5665 329.758 62.0695 327.51C62.5795 325.23 62.4191 323.309 61.5883 321.746C60.7645 320.151 59.322 319.124 57.261 318.663C55.1687 318.195 53.4102 318.506 51.9856 319.598C50.568 320.658 49.6042 322.327 49.0942 324.607C48.5912 326.856 48.7516 328.777 49.5755 330.371C50.4063 331.934 51.8678 332.95 53.9601 333.418ZM104.425 354.545L94.0263 352.218L86.7489 333.08L83.0184 349.756L72.6194 347.429L80.0385 314.265L90.4375 316.592L97.652 336.011L101.445 319.054L111.844 321.38L104.425 354.545ZM242.324 393.559L244.195 399.929L238.618 400.452L243.461 403.208L238.711 408.392L235.537 403.452L235.622 409.226L229.111 407.769L231.649 402.582L226.756 405.766L224.594 398.938L230.171 398.415L225.4 395.774L229.807 390.808L233.247 395.66L233.041 389.761L239.693 391.249L237.088 396.519L242.324 393.559ZM47.3356 352.037C50.8019 352.812 53.6738 354.193 55.9514 356.178C58.2602 358.17 59.8378 360.572 60.6842 363.385C61.5306 366.197 61.5975 369.196 60.8849 372.382C60.1793 375.536 58.8409 378.22 56.8698 380.435C54.8987 382.65 52.4374 384.198 49.4859 385.079C46.5726 385.936 43.3828 385.977 39.9164 385.201L26.098 382.11L33.5171 348.946L47.3356 352.037ZM41.0544 375.717C43.3965 376.241 45.3978 376.016 47.0583 375.043C48.7188 374.07 49.8145 372.397 50.3454 370.024C50.8763 367.65 50.598 365.67 49.5104 364.082C48.4228 362.494 46.7079 361.439 44.3658 360.915L41.8832 360.359L38.5718 375.161L41.0544 375.717ZM76.8727 367.351L75.9611 371.426L86.2663 373.731L84.5164 381.554L74.2111 379.248L73.1632 383.933L84.8737 386.552L83.0189 394.843L60.9094 389.897L68.3286 356.733L90.4381 361.679L88.5833 369.97L76.8727 367.351ZM99.8399 398.951C95.8739 398.064 92.801 396.409 90.6213 393.987C88.4797 391.54 87.7014 388.497 88.2861 384.856L99.3409 387.33C99.0709 389.269 99.701 390.41 101.231 390.753C101.793 390.879 102.29 390.858 102.72 390.692C103.189 390.502 103.486 390.126 103.612 389.564C103.787 388.783 103.505 388.064 102.767 387.407C102.035 386.719 100.849 385.863 99.2091 384.841C97.2532 383.616 95.653 382.488 94.4084 381.455C93.1951 380.429 92.2424 379.118 91.5505 377.52C90.8586 375.923 90.7693 374.05 91.2825 371.902C91.7645 369.747 92.7197 368.043 94.148 366.788C95.6146 365.51 97.3876 364.693 99.4672 364.339C101.578 363.991 103.836 364.086 106.24 364.624C110.3 365.532 113.307 367.189 115.261 369.593C117.246 372.005 117.921 374.927 117.284 378.358L106.089 375.854C106.267 374.91 106.183 374.186 105.837 373.683C105.491 373.179 105.005 372.857 104.381 372.717C103.943 372.619 103.549 372.695 103.198 372.945C102.854 373.163 102.623 373.537 102.504 374.068C102.337 374.818 102.603 375.533 103.303 376.214C104.041 376.871 105.239 377.746 106.897 378.838C108.815 380.087 110.364 381.221 111.547 382.239C112.76 383.265 113.723 384.53 114.436 386.034C115.149 387.538 115.289 389.258 114.856 391.194C114.401 393.224 113.493 394.939 112.131 396.339C110.775 397.708 109.043 398.632 106.936 399.112C104.828 399.591 102.463 399.538 99.8399 398.951ZM134.032 371.432L126.613 404.596L116.214 402.27L123.633 369.105L134.032 371.432ZM156.523 388.366C156.263 387.619 155.797 386.991 155.125 386.479C154.459 385.937 153.595 385.547 152.534 385.309C150.535 384.862 148.843 385.172 147.456 386.239C146.077 387.275 145.136 388.917 144.633 391.166C144.053 393.758 144.229 395.83 145.16 397.383C146.092 398.936 147.822 399.995 150.352 400.561C152.756 401.099 154.909 400.564 156.81 398.956L148.519 397.101L150.164 389.747L167.074 393.53L164.747 403.929C162.759 406.075 160.301 407.755 157.373 408.969C154.453 410.152 151.056 410.31 147.184 409.444C143.749 408.675 140.908 407.302 138.662 405.324C136.454 403.321 134.949 400.886 134.148 398.018C133.378 395.157 133.36 392.087 134.093 388.808C134.827 385.529 136.151 382.759 138.067 380.499C140.014 378.246 142.409 376.699 145.253 375.86C148.104 374.989 151.231 374.935 154.635 375.696C158.976 376.667 162.271 378.503 164.519 381.203C166.799 383.91 167.787 387.115 167.484 390.818L156.523 388.366ZM198.339 420.642L187.94 418.315L180.663 399.177L176.932 415.853L166.533 413.526L173.952 380.362L184.351 382.688L191.566 402.108L195.359 385.151L205.758 387.477L198.339 420.642Z" fill="white"/>
<rect x="122.628" y="222.917" width="84.9884" height="23.4751" rx="11.7376" transform="rotate(12.6099 122.628 222.917)" stroke="url(#paint0_linear_281_1276)" stroke-width="6"/>
<path d="M336.26 391.267C336.96 390.823 337.167 389.896 336.724 389.197L329.494 377.796C329.05 377.096 328.124 376.889 327.424 377.332C326.724 377.776 326.517 378.703 326.96 379.402L333.387 389.537L323.253 395.963C322.553 396.407 322.346 397.334 322.789 398.033C323.233 398.733 324.16 398.94 324.859 398.497L336.26 391.267ZM134.457 345L134.129 346.464L335.129 391.464L335.457 390L335.785 388.536L134.785 343.536L134.457 345Z" fill="white"/>
<circle cx="133.707" cy="344" r="12.5" stroke="white"/>
</g>
<defs>
<linearGradient id="paint0_linear_281_1276" x1="120.355" y1="234.072" x2="211.344" y2="234.072" gradientUnits="userSpaceOnUse">
<stop stop-color="white" stop-opacity="0"/>
<stop offset="1" stop-color="white"/>
</linearGradient>
</defs>
</svg>
