<svg width="394" height="578" viewBox="0 0 394 578" fill="none" xmlns="http://www.w3.org/2000/svg">
<mask id="mask0_281_1257" style="mask-type:alpha" maskUnits="userSpaceOnUse" x="0" y="0" width="394" height="578">
<rect width="394" height="578" fill="#D9D9D9"/>
</mask>
<g mask="url(#mask0_281_1257)">
<path d="M334.747 213.71L16.841 256.084C9.81414 257.02 4.83317 263.414 5.64383 270.456L14.5069 347.453C15.3322 354.622 21.8388 359.747 29.0018 358.87L314.285 323.935C321.525 323.049 326.619 316.381 325.57 309.163L324.418 301.232C323.469 294.701 327.563 288.496 333.941 286.8L345.93 283.61C352.271 281.923 356.361 275.774 355.466 269.273L349.343 224.822C348.366 217.732 341.842 212.764 334.747 213.71Z" fill="#FBD504"/>
<path d="M44.5266 281.624L44.9643 285.076L53.6964 283.985L54.5365 290.612L45.8045 291.703L46.3075 295.671L56.2304 294.431L57.1208 301.455L38.3865 303.796L34.8247 275.701L53.559 273.36L54.4494 280.384L44.5266 281.624ZM83.9315 299.637L84.3541 302.97L63.2383 305.609L62.8157 302.275L83.9315 299.637ZM86.9713 283.414C86.6191 280.637 86.8612 278.094 87.6976 275.785C88.5604 273.474 89.9615 271.592 91.901 270.141C93.8371 268.662 96.2208 267.747 99.0521 267.393C101.487 267.088 103.715 267.28 105.738 267.968C107.783 268.626 109.507 269.714 110.909 271.232C112.338 272.747 113.391 274.59 114.07 276.763L104.782 277.923C104.241 277.05 103.542 276.412 102.685 276.009C101.85 275.576 100.93 275.422 99.9247 275.547C98.4429 275.733 97.3358 276.435 96.6035 277.656C95.8976 278.872 95.6637 280.42 95.9018 282.298C96.14 284.177 96.7528 285.618 97.7404 286.624C98.7545 287.626 100.002 288.034 101.484 287.849C102.49 287.723 103.344 287.361 104.048 286.763C104.775 286.134 105.291 285.331 105.597 284.352L114.885 283.191C114.77 285.463 114.209 287.508 113.203 289.327C112.224 291.143 110.827 292.634 109.013 293.801C107.222 294.939 105.109 295.66 102.674 295.964C99.843 296.318 97.3067 296.03 95.0654 295.101C92.8207 294.145 90.9919 292.654 89.5791 290.627C88.1927 288.596 87.3235 286.192 86.9713 283.414ZM133.165 292.234C130.518 292.565 128.005 292.248 125.625 291.282C123.271 290.313 121.307 288.812 119.732 286.778C118.157 284.744 117.195 282.352 116.846 279.6C116.497 276.849 116.832 274.295 117.85 271.937C118.868 269.579 120.398 267.654 122.44 266.163C124.505 264.642 126.861 263.716 129.507 263.385C132.153 263.055 134.653 263.374 137.007 264.343C139.358 265.285 141.307 266.775 142.856 268.812C144.431 270.846 145.392 273.238 145.741 275.989C146.09 278.741 145.755 281.295 144.737 283.653C143.745 286.008 142.217 287.945 140.152 289.467C138.113 290.984 135.784 291.907 133.165 292.234ZM132.123 284.02C133.87 283.802 135.149 283.078 135.96 281.847C136.769 280.591 137.052 279.01 136.811 277.105C136.566 275.174 135.897 273.713 134.803 272.721C133.706 271.702 132.285 271.302 130.538 271.52C128.766 271.742 127.475 272.481 126.667 273.737C125.855 274.968 125.571 276.548 125.816 278.479C126.058 280.384 126.727 281.846 127.824 282.864C128.917 283.856 130.35 284.242 132.123 284.02ZM180.931 257.443L184.493 285.538L175.721 286.634L173.946 272.626L171.395 287.175L163.854 288.117L157.752 274.65L159.527 288.658L150.716 289.759L147.154 261.664L157.95 260.315L166.28 276.406L170.175 258.787L180.931 257.443ZM218.685 252.725L222.246 280.82L213.475 281.916L211.699 267.908L209.148 282.457L201.607 283.399L195.505 269.932L197.281 283.94L188.469 285.041L184.907 256.946L195.703 255.597L204.033 271.688L207.928 254.069L218.685 252.725ZM230.629 280.095C229.094 280.287 227.812 280.03 226.781 279.326C225.751 278.622 225.157 277.648 225 276.404C224.839 275.134 225.169 274.032 225.992 273.096C226.81 272.133 227.987 271.556 229.522 271.365C231.03 271.176 232.301 271.447 233.334 272.178C234.365 272.883 234.96 273.87 235.121 275.139C235.279 276.383 234.946 277.472 234.124 278.408C233.302 279.344 232.137 279.906 230.629 280.095ZM75.9742 322.161L76.3681 325.268L84.227 324.286L84.9831 330.25L77.1242 331.232L77.577 334.804L86.5075 333.688L87.3089 340.009L70.4481 342.116L67.2425 316.831L84.1033 314.724L84.9047 321.045L75.9742 322.161ZM106.408 337.622L100.931 331.631L97.9064 338.685L88.8687 339.814L95.5394 325.739L85.3059 314.573L94.7008 313.399L99.9675 319.163L102.881 312.377L111.919 311.248L105.359 325.056L115.803 336.448L106.408 337.622ZM136.155 317.035C136.358 318.63 136.173 320.129 135.6 321.53C135.025 322.908 134.059 324.069 132.703 325.012C131.371 325.953 129.681 326.551 127.633 326.807L124.489 327.2L125.508 335.236L117.578 336.227L114.372 310.941L125.446 309.557C128.542 309.17 131.011 309.66 132.853 311.026C134.72 312.389 135.82 314.392 136.155 317.035ZM125.947 320.669C127.591 320.463 128.314 319.587 128.118 318.039C127.922 316.492 127.002 315.821 125.359 316.026L123.108 316.307L123.697 320.95L125.947 320.669ZM146.302 313.372L146.696 316.479L154.555 315.497L155.311 321.462L147.452 322.444L147.905 326.015L156.836 324.899L157.637 331.221L140.776 333.328L137.57 308.042L154.431 305.935L155.233 312.256L146.302 313.372ZM173.343 329.258L167.442 320.78L167.406 320.785L168.556 329.856L160.626 330.847L157.42 305.561L169.208 304.088C171.256 303.832 173.053 303.983 174.6 304.539C176.143 305.072 177.352 305.925 178.226 307.097C179.122 308.243 179.669 309.602 179.868 311.173C180.082 312.864 179.796 314.423 179.01 315.852C178.247 317.277 177.02 318.386 175.331 319.177L182.059 328.169L173.343 329.258ZM166.736 315.499L169.879 315.106C170.641 315.011 171.192 314.773 171.531 314.392C171.866 313.987 171.987 313.416 171.894 312.678C171.809 312.011 171.54 311.512 171.087 311.182C170.658 310.849 170.074 310.728 169.336 310.82L166.192 311.213L166.736 315.499ZM189.281 301.58L192.487 326.865L184.557 327.856L181.351 302.571L189.281 301.58ZM201.595 306.463L201.989 309.57L209.848 308.588L210.604 314.552L202.745 315.534L203.198 319.105L212.128 317.989L212.929 324.311L196.069 326.418L192.863 301.132L209.724 299.025L210.525 305.347L201.595 306.463ZM240.173 320.906L232.243 321.897L222.237 310.232L223.848 322.946L215.918 323.937L212.713 298.652L220.643 297.661L230.677 309.54L229.038 296.612L236.968 295.62L240.173 320.906ZM241.435 307.869C241.118 305.369 241.335 303.08 242.088 301.003C242.865 298.923 244.126 297.229 245.871 295.923C247.614 294.592 249.759 293.768 252.307 293.45C254.498 293.176 256.504 293.348 258.324 293.967C260.165 294.56 261.717 295.539 262.979 296.905C264.264 298.268 265.212 299.927 265.823 301.883L257.464 302.927C256.978 302.142 256.348 301.567 255.577 301.204C254.826 300.814 253.998 300.676 253.093 300.789C251.759 300.956 250.763 301.588 250.103 302.686C249.468 303.781 249.258 305.174 249.472 306.865C249.686 308.555 250.238 309.853 251.127 310.758C252.039 311.659 253.163 312.027 254.496 311.86C255.401 311.747 256.17 311.421 256.804 310.883C257.458 310.317 257.922 309.594 258.198 308.713L266.557 307.668C266.453 309.713 265.949 311.554 265.043 313.191C264.162 314.825 262.905 316.167 261.272 317.217C259.66 318.241 257.758 318.89 255.567 319.164C253.019 319.482 250.736 319.223 248.719 318.387C246.699 317.527 245.053 316.185 243.782 314.36C242.534 312.533 241.751 310.369 241.435 307.869ZM276.179 297.142L276.573 300.249L284.431 299.267L285.188 305.231L277.329 306.213L277.781 309.785L286.712 308.669L287.513 314.99L270.653 317.097L267.447 291.812L284.308 289.705L285.109 296.026L276.179 297.142ZM300.429 313.63C297.404 314.008 294.815 313.618 292.66 312.46C290.526 311.276 289.202 309.325 288.688 306.608L297.119 305.554C297.422 306.992 298.157 307.638 299.324 307.492C299.753 307.438 300.098 307.298 300.359 307.072C300.642 306.819 300.756 306.478 300.702 306.05C300.626 305.455 300.244 305.019 299.556 304.742C298.865 304.441 297.81 304.138 296.392 303.831C294.7 303.462 293.284 303.071 292.143 302.657C291.026 302.24 290.02 301.556 289.125 300.603C288.23 299.651 287.69 298.352 287.506 296.706C287.297 295.063 287.538 293.618 288.226 292.371C288.936 291.097 289.979 290.072 291.356 289.295C292.757 288.516 294.375 288.011 296.208 287.782C299.304 287.395 301.848 287.803 303.839 289.005C305.854 290.205 307.073 292.096 307.497 294.679L298.96 295.746C298.846 295.035 298.602 294.545 298.229 294.278C297.857 294.01 297.432 293.905 296.956 293.965C296.623 294.007 296.364 294.16 296.18 294.425C295.992 294.666 295.925 294.989 295.976 295.394C296.048 295.965 296.418 296.402 297.086 296.706C297.774 296.983 298.842 297.297 300.29 297.648C301.961 298.044 303.343 298.452 304.436 298.871C305.554 299.288 306.555 299.937 307.441 300.818C308.327 301.699 308.863 302.877 309.051 304.353C309.247 305.901 309.042 307.341 308.437 308.675C307.829 309.984 306.842 311.075 305.477 311.947C304.112 312.819 302.429 313.38 300.429 313.63Z" fill="black"/>
<rect width="153.081" height="45.6679" rx="22.834" transform="matrix(0.9913 -0.131623 0.133495 0.991049 233.152 234.982)" fill="black"/>
<path d="M286.739 236.434L284.051 262.416L275.455 263.59L269.861 248.658L268.463 264.545L259.867 265.719L250.285 241.412L257.847 240.379L263.153 257.168L264.731 239.439L272.4 238.392L278.613 254.911L279.177 237.467L286.739 236.434ZM325.125 231.192L322.437 257.175L313.84 258.348L308.246 243.416L306.849 259.303L298.253 260.477L288.671 236.17L296.233 235.137L301.539 251.926L303.117 234.197L310.786 233.15L316.999 249.669L317.563 232.225L325.125 231.192ZM363.511 225.95L360.823 251.933L352.226 253.107L346.632 238.174L345.235 254.061L336.639 255.235L327.057 230.928L334.619 229.896L339.925 246.684L341.503 228.955L349.172 227.908L355.385 244.427L355.949 226.983L363.511 225.95ZM373.388 250.508C372.152 250.676 371.107 250.48 370.254 249.918C369.421 249.329 368.932 248.512 368.787 247.466C368.642 246.42 368.891 245.502 369.532 244.712C370.198 243.919 371.149 243.438 372.385 243.269C373.598 243.103 374.621 243.315 375.453 243.903C376.31 244.489 376.81 245.305 376.955 246.351C377.097 247.373 376.835 248.281 376.17 249.074C375.528 249.864 374.601 250.342 373.388 250.508Z" fill="white"/>
<ellipse cx="34.9161" cy="349.312" rx="31.9161" ry="31.6875" fill="black"/>
<ellipse cx="30.7788" cy="340.51" rx="6.50142" ry="6.45486" fill="#FBD504"/>
<ellipse cx="47.3295" cy="340.51" rx="6.50142" ry="6.45486" fill="#FBD504"/>
<line x1="33.0508" y1="360.549" x2="54.5102" y2="360.549" stroke="#FBD504" stroke-linecap="round"/>
</g>
</svg>
