<svg width="394" height="578" viewBox="0 0 394 578" fill="none" xmlns="http://www.w3.org/2000/svg">
<mask id="mask0_281_1258" style="mask-type:alpha" maskUnits="userSpaceOnUse" x="0" y="0" width="394" height="578">
<rect width="394" height="578" fill="#D9D9D9"/>
</mask>
<g mask="url(#mask0_281_1258)">
<circle cx="197" cy="289" r="197" fill="#D4F040"/>
<path d="M84.5831 170.419L95.3007 182.245C96.1782 183.213 97.0841 183.796 98.0183 183.993C98.9544 184.152 99.8967 183.802 100.845 182.942C101.794 182.083 102.244 181.17 102.197 180.205C102.133 179.22 101.661 178.244 100.784 177.276L90.0663 165.45L96.6166 159.513L107.334 171.339C109.143 173.335 110.277 175.42 110.736 177.595C111.178 179.75 111 181.837 110.202 183.855C109.404 185.874 108.116 187.689 106.338 189.301C104.559 190.913 102.656 191.989 100.629 192.532C98.6205 193.056 96.5955 192.966 94.5534 192.261C92.5114 191.557 90.5771 190.197 88.7505 188.181L78.0329 176.355L84.5831 170.419ZM128.319 172.83C125.413 174.568 122.606 175.331 119.899 175.117C117.201 174.867 114.985 173.473 113.25 170.938L121.351 166.091C122.301 167.419 123.336 167.747 124.458 167.076C124.869 166.83 125.158 166.533 125.323 166.185C125.497 165.801 125.461 165.404 125.215 164.992C124.873 164.419 124.29 164.147 123.467 164.173C122.63 164.177 121.422 164.34 119.844 164.662C117.959 165.044 116.345 165.28 115 165.37C113.678 165.446 112.35 165.199 111.015 164.63C109.68 164.062 108.552 162.981 107.63 161.388C106.686 159.809 106.285 158.231 106.429 156.653C106.582 155.039 107.185 153.528 108.239 152.121C109.316 150.7 110.735 149.463 112.497 148.409C115.472 146.629 118.24 145.905 120.8 146.238C123.384 146.557 125.468 147.936 127.051 150.375L118.847 155.284C118.414 154.611 117.948 154.221 117.449 154.116C116.951 154.01 116.473 154.094 116.015 154.368C115.695 154.559 115.5 154.831 115.431 155.183C115.349 155.512 115.424 155.871 115.656 156.26C115.985 156.81 116.556 157.089 117.37 157.1C118.193 157.073 119.419 156.915 121.048 156.624C122.923 156.279 124.51 156.075 125.809 156.013C127.131 155.937 128.439 156.149 129.732 156.649C131.026 157.149 132.097 158.108 132.946 159.527C133.836 161.015 134.271 162.572 134.25 164.2C134.216 165.806 133.7 167.358 132.701 168.856C131.702 170.355 130.241 171.68 128.319 172.83ZM156.031 155.86L147.108 158.942L147.183 163.445L138.374 166.488L138.919 136.338L148.597 132.994L167.599 156.392L158.752 159.448L156.031 155.86ZM151.808 150.251L146.816 143.639L146.969 151.923L151.808 150.251ZM186.682 139.552C188.423 139.751 189.83 140.418 190.903 141.555C191.999 142.661 192.642 144.023 192.831 145.638C193.119 148.101 192.521 150.105 191.037 151.647C189.576 153.161 187.323 154.096 184.277 154.452L169.537 156.176L166.247 128.048L180.589 126.37C183.449 126.036 185.773 126.395 187.561 127.447C189.349 128.5 190.382 130.218 190.661 132.602C190.853 134.244 190.579 135.686 189.838 136.927C189.121 138.139 188.069 139.013 186.682 139.552ZM176.349 137.981L179.766 137.582C180.561 137.489 181.125 137.262 181.458 136.9C181.818 136.536 181.96 136.023 181.882 135.361C181.802 134.672 181.544 134.192 181.11 133.921C180.699 133.62 180.096 133.516 179.301 133.609L175.885 134.009L176.349 137.981ZM181.542 147.603C182.337 147.51 182.903 147.296 183.239 146.962C183.6 146.597 183.739 146.071 183.659 145.382C183.501 144.031 182.64 143.447 181.078 143.63L177.065 144.1L177.53 148.073L181.542 147.603ZM206.358 125.243L205.539 153.552L196.662 153.295L197.482 124.987L206.358 125.243ZM219.311 148.604L227.774 149.892L226.762 156.536L209.521 153.911L213.783 125.913L222.562 127.25L219.311 148.604ZM245.667 132.333L238.003 159.596L229.455 157.194L237.118 129.93L245.667 132.333ZM273.5 143.925L270.676 150.373L263.788 147.356L255.249 166.848L247.115 163.285L255.654 143.793L248.839 140.808L251.664 134.359L273.5 143.925ZM302.646 163.587L283.007 173.902L278.07 180.945L270.799 175.847L275.735 168.805L278.736 146.826L287.055 152.658L284.993 163.473L294.457 157.847L302.646 163.587ZM328.637 191.194L323.308 195.795L318.393 190.103L302.287 204.011L296.484 197.29L312.59 183.382L307.727 177.751L313.056 173.15L328.637 191.194ZM331.258 208.401L328.273 210.19L332.797 217.738L327.067 221.172L322.543 213.623L319.112 215.679L324.253 224.257L318.179 227.896L308.475 211.702L332.767 197.144L342.472 213.339L336.399 216.978L331.258 208.401ZM323.274 241.345C322.063 238.182 321.796 235.286 322.474 232.657C323.187 230.042 324.942 228.1 327.739 226.829L331.114 235.645C329.642 236.351 329.14 237.314 329.608 238.535C329.779 238.983 330.022 239.318 330.335 239.541C330.683 239.779 331.082 239.812 331.53 239.64C332.153 239.402 332.522 238.875 332.638 238.06C332.779 237.235 332.827 236.017 332.782 234.407C332.731 232.485 332.777 230.854 332.921 229.514C333.074 228.199 333.546 226.933 334.337 225.716C335.128 224.5 336.387 223.575 338.115 222.942C339.833 222.284 341.457 222.162 342.986 222.576C344.55 223.006 345.934 223.861 347.138 225.142C348.352 226.447 349.325 228.059 350.06 229.977C351.299 233.214 351.534 236.065 350.764 238.53C350.004 241.02 348.286 242.834 345.61 243.973L342.192 235.045C342.929 234.734 343.393 234.342 343.583 233.869C343.774 233.397 343.773 232.912 343.583 232.413C343.449 232.065 343.215 231.826 342.88 231.697C342.57 231.559 342.204 231.571 341.78 231.733C341.183 231.962 340.808 232.476 340.658 233.276C340.542 234.092 340.486 235.326 340.491 236.981C340.507 238.888 340.434 240.486 340.271 241.776C340.118 243.091 339.683 244.343 338.967 245.531C338.252 246.718 337.122 247.608 335.577 248.199C333.959 248.819 332.349 248.978 330.749 248.677C329.174 248.366 327.734 247.59 326.431 246.347C325.127 245.104 324.075 243.437 323.274 241.345ZM360.01 271.079L353.086 272.349L351.73 264.952L330.799 268.789L329.197 260.054L350.129 256.218L348.787 248.899L355.712 247.63L360.01 271.079ZM360.994 286.174L332.702 287.422L332.31 278.551L360.602 277.302L360.994 286.174ZM329.387 318.387L330.423 309.567L345.663 301.894L331.52 300.232L332.557 291.412L360.683 294.717L359.647 303.537L344.169 311.183L358.55 312.873L357.513 321.692L329.387 318.387ZM340.193 344.822C340.837 344.685 341.405 344.364 341.897 343.86C342.414 343.365 342.825 342.691 343.13 341.837C343.705 340.23 343.622 338.798 342.881 337.542C342.166 336.295 340.904 335.349 339.097 334.702C337.012 333.957 335.281 333.89 333.901 334.501C332.521 335.112 331.468 336.435 330.741 338.469C330.049 340.402 330.271 342.237 331.406 343.974L333.79 337.308L339.703 339.422L334.841 353.019L326.48 350.029C324.909 348.165 323.772 345.96 323.068 343.414C322.389 340.877 322.606 338.052 323.719 334.939C324.707 332.177 326.134 329.968 328 328.313C329.882 326.692 332.05 325.697 334.504 325.329C336.95 324.985 339.49 325.285 342.127 326.228C344.763 327.171 346.918 328.55 348.591 330.366C350.255 332.207 351.288 334.346 351.691 336.784C352.119 339.231 351.843 341.823 350.865 344.56C349.617 348.05 347.761 350.587 345.297 352.17C342.825 353.778 340.073 354.267 337.042 353.636L340.193 344.822ZM325.272 390.848L319.787 390.122L321.272 385.697L317.537 388.455L315.192 383.086L320.028 382.336L315.6 380.451L318.909 375.983L322.003 379.668L321.23 374.865L327.162 375.524L325.677 379.95L329.301 377.207L331.595 382.242L326.737 383.223L331.301 385.059L327.92 389.624L324.785 385.859L325.272 390.848ZM298.225 417.266L288.613 404.525C287.826 403.482 286.976 402.821 286.064 402.541C285.146 402.298 284.176 402.562 283.154 403.333C282.132 404.104 281.601 404.972 281.561 405.937C281.537 406.924 281.919 407.939 282.706 408.982L292.318 421.723L285.261 427.047L275.649 414.306C274.027 412.156 273.085 409.977 272.822 407.77C272.576 405.584 272.941 403.522 273.917 401.583C274.893 399.644 276.339 397.952 278.255 396.507C280.17 395.061 282.163 394.16 284.231 393.802C286.278 393.46 288.287 393.732 290.257 394.617C292.228 395.502 294.032 397.03 295.67 399.201L305.282 411.942L298.225 417.266ZM254.879 410.926C257.931 409.458 260.795 408.953 263.471 409.411C266.135 409.905 268.216 411.494 269.714 414.177L261.207 418.268C260.381 416.86 259.38 416.439 258.202 417.006C257.77 417.214 257.456 417.483 257.26 417.814C257.051 418.181 257.051 418.58 257.259 419.013C257.548 419.614 258.104 419.938 258.926 419.987C259.76 420.059 260.977 420.006 262.578 419.828C264.49 419.619 266.119 419.53 267.466 419.563C268.79 419.607 270.09 419.973 271.368 420.66C272.645 421.348 273.671 422.527 274.444 424.196C275.242 425.854 275.498 427.463 275.211 429.021C274.913 430.614 274.175 432.064 272.998 433.37C271.797 434.687 270.271 435.791 268.421 436.681C265.297 438.184 262.475 438.653 259.955 438.09C257.411 437.538 255.461 435.976 254.105 433.402L262.72 429.259C263.091 429.968 263.519 430.398 264.006 430.548C264.493 430.699 264.977 430.659 265.457 430.428C265.794 430.266 266.012 430.013 266.113 429.668C266.225 429.348 266.183 428.984 265.987 428.575C265.709 427.998 265.166 427.668 264.356 427.584C263.534 427.536 262.298 427.582 260.65 427.724C258.751 427.898 257.152 427.957 255.853 427.901C254.53 427.857 253.247 427.527 252.004 426.912C250.761 426.296 249.781 425.244 249.064 423.754C248.313 422.192 248.021 420.601 248.189 418.981C248.369 417.386 249.024 415.887 250.155 414.485C251.285 413.083 252.86 411.897 254.879 410.926ZM225.737 425.301L234.903 423.046L235.24 418.556L244.29 416.329L240.996 446.304L231.052 448.75L214.266 423.716L223.355 421.48L225.737 425.301ZM229.43 431.272L233.798 438.312L234.402 430.049L229.43 431.272ZM193.749 438.777C192.032 438.423 190.691 437.632 189.724 436.404C188.732 435.203 188.214 433.79 188.171 432.164C188.105 429.684 188.88 427.743 190.496 426.34C192.087 424.963 194.415 424.234 197.481 424.153L212.315 423.757L213.07 452.067L198.636 452.452C195.757 452.529 193.474 451.963 191.788 450.754C190.102 449.545 189.227 447.741 189.163 445.342C189.118 443.689 189.521 442.278 190.37 441.108C191.193 439.966 192.32 439.189 193.749 438.777ZM203.899 441.267L200.46 441.359C199.661 441.381 199.078 441.556 198.714 441.886C198.322 442.216 198.136 442.715 198.153 443.381C198.172 444.074 198.385 444.576 198.794 444.885C199.176 445.221 199.767 445.379 200.567 445.358L204.006 445.266L203.899 441.267ZM199.59 431.219C198.79 431.24 198.207 431.402 197.842 431.706C197.451 432.036 197.264 432.548 197.283 433.241C197.319 434.601 198.124 435.259 199.696 435.217L203.735 435.11L203.628 431.111L199.59 431.219ZM172.829 451.243L176.224 423.127L185.04 424.192L181.645 452.308L172.829 451.243ZM162.059 426.802L153.749 424.749L155.36 418.225L172.291 422.407L165.5 449.901L156.879 447.772L162.059 426.802ZM134.334 440.609L144.445 414.155L152.74 417.326L142.629 443.779L134.334 440.609ZM107.676 426.549L111.073 420.382L117.66 424.011L127.927 405.372L135.705 409.657L125.438 428.296L131.954 431.885L128.557 438.052L107.676 426.549ZM80.4302 404.338L100.921 395.838L106.473 389.27L113.254 395.003L107.702 401.571L102.729 423.19L94.9704 416.63L98.0006 406.045L88.0669 410.794L80.4302 404.338ZM57.0366 374.485L62.76 370.386L67.1388 376.499L84.4391 364.108L89.6098 371.327L72.3096 383.719L76.6418 389.767L70.9184 393.867L57.0366 374.485ZM55.9848 357.111L59.1197 355.6L55.2989 347.673L61.3164 344.773L65.1372 352.7L68.7405 350.963L64.3987 341.955L70.7765 338.881L78.9739 355.889L53.4625 368.185L45.2652 351.177L51.643 348.103L55.9848 357.111ZM66.9307 325.024C67.8478 328.284 67.8487 331.193 66.9336 333.75C65.9855 336.288 64.0607 338.062 61.1591 339.072L58.6028 329.985C60.1326 329.416 60.7206 328.503 60.3667 327.245C60.2367 326.783 60.0257 326.427 59.7337 326.176C59.4088 325.908 59.0153 325.838 58.5533 325.968C57.9115 326.149 57.4956 326.64 57.3055 327.441C57.0898 328.25 56.931 329.458 56.8292 331.066C56.7041 332.984 56.5089 334.604 56.2434 335.926C55.9707 337.221 55.3852 338.439 54.4868 339.578C53.5884 340.717 52.2499 341.523 50.4715 341.996C48.7002 342.494 47.0721 342.467 45.5872 341.915C44.0694 341.345 42.7694 340.367 41.6871 338.982C40.5976 337.571 39.7749 335.877 39.2188 333.9C38.2801 330.563 38.3064 327.702 39.2978 325.318C40.282 322.908 42.1587 321.258 44.9279 320.369L47.5167 329.571C46.7538 329.814 46.256 330.162 46.0234 330.615C45.7908 331.068 45.7467 331.551 45.8911 332.065C45.9922 332.424 46.2036 332.683 46.5253 332.842C46.8213 333.008 47.1875 333.03 47.6239 332.907C48.24 332.734 48.6596 332.256 48.8825 331.473C49.0726 330.671 49.2406 329.447 49.3865 327.799C49.5445 325.898 49.7634 324.313 50.0433 323.043C50.316 321.748 50.863 320.541 51.6844 319.424C52.5058 318.306 53.7123 317.524 55.3039 317.076C56.9724 316.606 58.5897 316.595 60.1556 317.041C61.6959 317.494 63.0585 318.399 64.2434 319.755C65.4283 321.112 66.3241 322.868 66.9307 325.024ZM33.0364 292.096L40.0472 291.456L40.731 298.945L61.9229 297.01L62.7303 305.853L41.5385 307.788L42.215 315.197L35.2041 315.838L33.0364 292.096ZM33.4112 276.986L61.7016 278.279L61.2963 287.15L33.0058 285.857L33.4112 276.986ZM67.8114 247.743L65.9787 256.432L50.1053 262.691L64.0387 265.63L62.206 274.318L34.4957 268.474L36.3284 259.785L52.4367 253.576L38.2684 250.587L40.1011 241.898L67.8114 247.743ZM56.5426 204.742L62.075 204.748L61.1791 209.328L64.5231 206.107L67.5474 211.125L62.8507 212.498L67.4861 213.79L64.7876 218.652L61.2394 215.401L62.6318 220.063L56.6642 220.181L57.5602 215.6L54.3249 218.791L51.394 214.099L56.0828 212.493L51.3192 211.266L54.076 206.3L57.6748 209.625L56.5426 204.742Z" fill="black"/>
<g clip-path="url(#clip0_281_1258)">
<path d="M187.668 302.997L197.001 295.881L206.335 302.997L202.835 291.447L212.168 284.797H200.735L197.001 272.664L193.268 284.797H181.835L191.168 291.447L187.668 302.997ZM197.001 312.331C193.774 312.331 190.74 311.718 187.901 310.493C185.062 309.268 182.593 307.606 180.493 305.506C178.393 303.406 176.73 300.936 175.505 298.097C174.28 295.259 173.668 292.225 173.668 288.997C173.668 285.77 174.28 282.736 175.505 279.897C176.73 277.059 178.393 274.589 180.493 272.489C182.593 270.389 185.062 268.727 187.901 267.502C190.74 266.277 193.774 265.664 197.001 265.664C200.229 265.664 203.262 266.277 206.101 267.502C208.94 268.727 211.41 270.389 213.51 272.489C215.61 274.589 217.272 277.059 218.497 279.897C219.722 282.736 220.335 285.77 220.335 288.997C220.335 292.225 219.722 295.259 218.497 298.097C217.272 300.936 215.61 303.406 213.51 305.506C211.41 307.606 208.94 309.268 206.101 310.493C203.262 311.718 200.229 312.331 197.001 312.331ZM197.001 307.664C202.212 307.664 206.626 305.856 210.243 302.239C213.86 298.622 215.668 294.209 215.668 288.997C215.668 283.786 213.86 279.372 210.243 275.756C206.626 272.139 202.212 270.331 197.001 270.331C191.79 270.331 187.376 272.139 183.76 275.756C180.143 279.372 178.335 283.786 178.335 288.997C178.335 294.209 180.143 298.622 183.76 302.239C187.376 305.856 191.79 307.664 197.001 307.664Z" fill="black"/>
</g>
<rect x="136.297" y="228.295" width="121.408" height="121.408" rx="60.7039" stroke="black"/>
</g>
<defs>
<clipPath id="clip0_281_1258">
<rect x="135.797" y="227.795" width="122.408" height="122.408" rx="61.2039" fill="white"/>
</clipPath>
</defs>
</svg>
