<svg width="394" height="578" viewBox="0 0 394 578" fill="none" xmlns="http://www.w3.org/2000/svg">
<mask id="mask0_281_1277" style="mask-type:alpha" maskUnits="userSpaceOnUse" x="0" y="0" width="394" height="578">
<rect width="394" height="578" fill="#D9D9D9"/>
</mask>
<g mask="url(#mask0_281_1277)">
<rect width="358.173" height="134.342" rx="16" transform="matrix(0.959048 -0.283243 0.316352 0.948642 4 302.451)" fill="#06B6D4"/>
<path d="M52.071 325.672C54.3189 325.533 56.2684 326.05 57.9193 327.223C59.5919 328.355 60.7596 329.903 61.4225 331.869C62.433 334.865 62.2054 337.486 60.7398 339.732C59.2958 341.937 56.7006 343.599 52.9542 344.718L34.8247 350.133L23.2851 315.919L40.9259 310.649C44.4443 309.598 47.4688 309.528 49.9993 310.439C52.5298 311.35 54.284 313.255 55.262 316.155C55.9357 318.152 55.9686 320.004 55.3608 321.711C54.7746 323.375 53.678 324.696 52.071 325.672ZM38.632 326.016L42.8345 324.761C43.8118 324.469 44.4633 324.061 44.789 323.539C45.1473 323.006 45.1906 322.337 44.919 321.532C44.6365 320.694 44.1857 320.155 43.5666 319.914C42.9693 319.632 42.1819 319.636 41.2046 319.928L37.0021 321.183L38.632 326.016ZM47.7074 336.816C48.6847 336.524 49.3417 336.133 49.6782 335.643C50.0365 335.11 50.0744 334.425 49.7919 333.587C49.2377 331.944 47.9996 331.41 46.0775 331.984L41.142 333.458L42.7719 338.291L47.7074 336.816ZM85.6261 334.959L74.9869 324.625L74.9381 324.64L79.078 336.915L68.2296 340.155L56.69 305.941L72.816 301.124C75.6177 300.287 78.1806 300.071 80.5046 300.476C82.8179 300.849 84.7511 301.743 86.3043 303.159C87.8793 304.533 89.0253 306.283 89.7424 308.409C90.5139 310.696 90.5469 312.921 89.8414 315.082C89.1685 317.233 87.7571 319.056 85.6071 320.549L97.5496 331.397L85.6261 334.959ZM72.5258 317.488L76.8261 316.203C77.8686 315.892 78.5744 315.433 78.9435 314.826C79.3018 314.187 79.3125 313.368 78.9756 312.37C78.6714 311.468 78.1554 310.841 77.4278 310.491C76.7327 310.132 75.8802 310.103 74.8702 310.404L70.57 311.689L72.5258 317.488ZM121.408 318.579L109.875 322.024L109.909 327.705L98.5231 331.106L99.6399 293.112L112.15 289.375L136.297 319.823L124.862 323.239L121.408 318.579ZM116.047 311.297L109.709 302.711L109.792 313.165L116.047 311.297ZM171.942 309.176L161.094 312.417L143.808 298.643L149.61 315.847L138.762 319.087L127.222 284.873L138.07 281.632L155.454 295.696L149.554 278.202L160.403 274.962L171.942 309.176ZM179.719 269.192C183.335 268.112 186.74 267.893 189.933 268.535C193.158 269.167 195.939 270.553 198.274 272.693C200.609 274.832 202.331 277.545 203.439 280.831C204.537 284.085 204.793 287.236 204.207 290.283C203.621 293.331 202.215 296.02 199.989 298.352C197.785 300.641 194.875 302.326 191.259 303.406L176.843 307.712L165.304 273.498L179.719 269.192ZM187.054 294.13C189.498 293.4 191.213 292.161 192.201 290.412C193.189 288.663 193.27 286.564 192.444 284.115C191.619 281.667 190.266 279.996 188.387 279.103C186.508 278.211 184.347 278.129 181.904 278.859L179.314 279.633L184.465 294.904L187.054 294.13ZM212.468 259.41L224.008 293.624L213.159 296.865L201.62 262.65L212.468 259.41ZM262.088 282.25L251.239 285.49L233.953 271.717L239.756 288.921L228.907 292.161L217.368 257.947L228.216 254.706L245.6 268.77L239.7 251.276L250.548 248.036L262.088 282.25ZM280.602 251.932C279.95 251.382 279.173 251.046 278.272 250.925C277.36 250.772 276.35 250.861 275.242 251.192C273.157 251.815 271.773 252.973 271.089 254.667C270.394 256.328 270.438 258.319 271.22 260.638C272.122 263.312 273.431 265.12 275.147 266.061C276.863 267.003 279.041 267.079 281.68 266.291C284.188 265.542 285.871 263.94 286.728 261.485L278.079 264.069L275.52 256.482L293.161 251.212L296.779 261.941C296.139 264.933 294.809 267.742 292.79 270.367C290.76 272.959 287.725 274.858 283.685 276.065C280.101 277.135 276.729 277.345 273.569 276.693C270.431 275.999 267.699 274.545 265.375 272.332C263.083 270.108 261.366 267.305 260.225 263.923C259.085 260.54 258.769 257.318 259.279 254.258C259.821 251.188 261.167 248.534 263.317 246.296C265.456 244.026 268.301 242.361 271.852 241.3C276.38 239.947 280.426 239.927 283.988 241.239C287.583 242.541 290.266 244.967 292.036 248.516L280.602 251.932ZM338.279 259.492L335.135 257.984C332.681 260.703 329.386 262.68 325.248 263.916C322.446 264.753 319.856 265.048 317.478 264.801C315.132 264.544 313.139 263.792 311.499 262.544C309.848 261.264 308.675 259.593 307.98 257.531C307.317 255.566 307.219 253.627 307.685 251.714C308.174 249.76 309.254 247.912 310.926 246.172C308.808 244.783 307.407 243.074 306.722 241.044C306.136 239.305 306.054 237.574 306.477 235.851C306.933 234.119 307.915 232.567 309.425 231.194C310.923 229.789 312.91 228.717 315.386 227.977C317.895 227.228 320.181 227.042 322.244 227.418C324.297 227.763 326.007 228.528 327.376 229.715C328.744 230.902 329.711 232.334 330.276 234.009L320.405 236.957C320.199 236.345 319.867 235.948 319.411 235.765C318.944 235.55 318.466 235.515 317.978 235.661C317.456 235.817 317.055 236.114 316.772 236.553C316.512 236.95 316.474 237.422 316.659 237.97C317.006 239.001 318.125 239.979 320.015 240.904L330.425 246.093C330.588 245.086 330.663 243.982 330.652 242.78L330.652 242.301L341.159 239.163L341.094 240.565C340.942 244.157 340.378 247.481 339.401 250.539L350.203 255.93L338.279 259.492ZM323.178 255.226C324.351 254.875 325.382 254.372 326.272 253.716L318.713 250.123C318.29 250.675 318.019 251.252 317.899 251.855C317.802 252.416 317.84 252.955 318.014 253.47C318.296 254.308 318.893 254.91 319.806 255.275C320.751 255.631 321.875 255.615 323.178 255.226ZM51.7107 364.794L63.2502 399.008L52.4018 402.249L40.8623 368.034L51.7107 364.794ZM71.026 359.024C74.6421 357.944 78.0466 357.725 81.2395 358.367C84.465 359 87.2454 360.386 89.5807 362.525C91.916 364.665 93.6377 367.377 94.7461 370.663C95.8435 373.917 96.0993 377.068 95.5135 380.116C94.9276 383.163 93.5217 385.853 91.2959 388.184C89.0918 390.474 86.1817 392.159 82.5655 393.239L68.1499 397.545L56.6103 363.33L71.026 359.024ZM78.361 383.962C80.8044 383.232 82.52 381.993 83.5079 380.244C84.4958 378.495 84.5769 376.396 83.7511 373.948C82.9253 371.499 81.5729 369.829 79.694 368.936C77.8151 368.043 75.6539 367.962 73.2106 368.691L70.6207 369.465L75.7711 384.736L78.361 383.962ZM106.66 357.796L108.078 362L118.828 358.789L121.55 366.86L110.799 370.071L112.429 374.903L124.646 371.254L127.531 379.808L104.466 386.697L92.9262 352.483L115.991 345.593L118.876 354.147L106.66 357.796ZM164.8 368.676L153.951 371.916L136.665 358.142L142.468 375.346L131.619 378.587L120.08 344.372L130.928 341.132L148.312 355.195L142.412 337.702L153.26 334.461L164.8 368.676ZM185.331 324.882L188.2 333.387L179.013 336.131L187.684 361.84L176.835 365.081L168.164 339.372L159.075 342.086L156.207 333.581L185.331 324.882ZM199.122 320.762L210.661 354.977L199.813 358.217L188.273 324.003L199.122 320.762ZM231.191 311.183L234.06 319.689L224.873 322.433L233.544 348.142L222.696 351.382L214.025 325.673L204.935 328.388L202.067 319.883L231.191 311.183ZM267.363 300.379L262.986 327.911L266.49 338.301L255.642 341.541L252.138 331.151L231.69 311.034L244.102 307.327L253.715 317.807L255.146 304.028L267.363 300.379ZM294.356 291.678C297.744 290.666 301.008 290.507 304.146 291.201C307.285 291.894 310.022 293.364 312.357 295.61C314.714 297.814 316.463 300.607 317.604 303.99C318.756 307.405 319.05 310.668 318.486 313.78C317.911 316.86 316.559 319.551 314.431 321.853C312.325 324.114 309.577 325.75 306.189 326.762C302.801 327.774 299.538 327.933 296.399 327.24C293.25 326.514 290.491 325.032 288.123 322.796C285.755 320.56 284.001 317.751 282.86 314.368C281.719 310.985 281.436 307.754 282.011 304.674C282.575 301.562 283.927 298.871 286.066 296.601C288.205 294.331 290.968 292.69 294.356 291.678ZM295.416 294.819C292.549 295.675 290.258 297.016 288.542 298.84C286.848 300.623 285.795 302.764 285.383 305.263C285.003 307.752 285.303 310.447 286.281 313.346C287.258 316.246 288.671 318.625 290.517 320.485C292.385 322.303 294.579 323.492 297.099 324.052C299.619 324.611 302.296 324.468 305.13 323.621C307.964 322.774 310.223 321.444 311.906 319.629C313.621 317.804 314.68 315.626 315.081 313.095C315.482 310.564 315.199 307.864 314.232 304.997C313.254 302.098 311.831 299.739 309.963 297.921C308.095 296.103 305.906 294.93 303.398 294.403C300.911 293.834 298.25 293.972 295.416 294.819ZM296.866 298.482C294.683 299.134 292.892 300.148 291.491 301.523C290.123 302.89 289.255 304.514 288.886 306.398C288.517 308.281 288.696 310.302 289.424 312.46C290.152 314.619 291.244 316.367 292.7 317.706C294.155 319.044 295.86 319.9 297.815 320.274C299.802 320.638 301.888 320.494 304.07 319.842C306.742 319.044 308.772 317.568 310.162 315.416C311.551 313.263 311.996 310.807 311.496 308.049L302.505 310.734C302.559 311.959 302.13 312.708 301.218 312.98C300.502 313.194 299.844 313.054 299.247 312.558C298.682 312.053 298.193 311.189 297.781 309.964C297.368 308.74 297.237 307.768 297.389 307.049C297.573 306.32 298.024 305.849 298.741 305.635C299.653 305.362 300.462 305.741 301.168 306.772L310.16 304.086C308.878 301.561 307.009 299.796 304.555 298.792C302.1 297.787 299.538 297.684 296.866 298.482Z" fill="black"/>
</g>
</svg>
